<?xml version="1.0" encoding="UTF-8"?>
<svg xmlns="http://www.w3.org/2000/svg" width="48" height="116" viewBox="0 0 48 116">
<rect width="48" height="116" fill="#262626" />
<g fill="none" stroke-linecap="round" stroke-linejoin="round">
<polyline points="22,20 22,33 28,33 26,42 24,96 -18,95 -20,92 -39,92 -46,84 -63,84 -63,88 -66,89 -70,94 -72,94 -76,98 -76,81 -78,80 -78,78 -74,74 -68,72 -67,70 -61,68 -53,62 -45,59 -44,57 -38,55 -30,49 -22,46 -21,44 -15,42 -7,36 1,33 2,31 22,21 22,20" fill="none" stroke="#ffff00" stroke-width="1.8" opacity="1" pointer-events="stroke" class="debug-zone-boundary" data-kind="zone-boundary" data-label="Zone boundary" data-tooltip="Zone boundary"><title>zone boundary</title></polyline>
<polyline points="24.56,84.87 22.94,84.49 22.47,84.33 22,84.16 21.53,84 21.05,83.84 20.58,83.67 20.11,83.51 19.64,83.34 19.16,83.18 18.69,83.02 18.22,82.85 17.75,82.69 17.27,82.52 16.8,82.36 16.33,82.2 15.86,82.03 15.38,81.87" fill="none" stroke="#ff00ff" stroke-width="1.1" opacity="0.95" pointer-events="stroke" class="debug-cross-street" data-kind="cross-street" data-label="Cross street" data-tooltip="Cross street
Sector 0
Road 370" data-sector-idx="0" data-road-id="370" data-street-key="-90|7032.78|18199.37|6986.92|18184.35" data-ct-off="-90"><title>Cross street
Sector 0
Road 370</title></polyline>
<polyline points="25.51,65.8 23.64,65.68 23.17,65.52 22.7,65.35 22.23,65.19 21.75,65.03 21.28,64.86 20.81,64.7 20.34,64.54 19.87,64.37 19.39,64.21 18.92,64.04 18.45,63.88 17.98,63.72 17.5,63.55 17.03,63.39 16.56,63.22 16.09,63.06 15.61,62.9 15.14,62.73 14.67,62.57 14.2,62.41" fill="none" stroke="#ff00ff" stroke-width="1.1" opacity="0.95" pointer-events="stroke" class="debug-cross-street" data-kind="cross-street" data-label="Cross street" data-tooltip="Cross street
Sector 0
Road 371" data-sector-idx="0" data-road-id="371" data-street-key="0|7037.55|18104.01|6980.98|18087.03" data-ct-off="0"><title>Cross street
Sector 0
Road 371</title></polyline>
<polyline points="26.44,47.13 24.82,47.04 24.35,46.87 23.87,46.71 23.4,46.55 22.93,46.38 22.46,46.22 21.98,46.05 21.51,45.89 21.04,45.73 20.57,45.56 20.09,45.4 19.62,45.24 19.15,45.07 18.68,44.91 18.2,44.74 17.73,44.58 17.26,44.42 16.79,44.25 16.31,44.09 15.84,43.92 15.37,43.76 14.9,43.6 14.43,43.43" fill="none" stroke="#ff00ff" stroke-width="1.1" opacity="0.95" pointer-events="stroke" class="debug-cross-street" data-kind="cross-street" data-label="Cross street" data-tooltip="Cross street
Sector 0
Road 372" data-sector-idx="0" data-road-id="372" data-street-key="90|7042.22|18010.63|6982.13|17992.17" data-ct-off="90"><title>Cross street
Sector 0
Road 372</title></polyline>
<polyline points="22,26.8 20.8,26.59 20.32,26.43 19.85,26.26 19.38,26.1 18.91,25.94 18.43,25.77 17.96,25.61 17.49,25.44 17.02,25.28 16.54,25.12 16.07,24.95 15.6,24.79 15.13,24.62 14.65,24.46" fill="none" stroke="#ff00ff" stroke-width="1.1" opacity="0.95" pointer-events="stroke" class="debug-cross-street" data-kind="cross-street" data-label="Cross street" data-tooltip="Cross street
Sector 0
Road 373" data-sector-idx="0" data-road-id="373" data-street-key="180|7020|17909|6983.27|17897.3" data-ct-off="180"><title>Cross street
Sector 0
Road 373</title></polyline>
<polyline points="2.75,39.34 3.2,39.11 3.64,38.88 4.08,38.64 4.52,38.41 4.97,38.18 5.41,37.94 5.85,37.71 6.29,37.48 6.74,37.25 7.18,37.01 7.62,36.78 8.06,36.55 8.51,36.31 8.95,36.08 9.39,35.85 9.83,35.62 10.28,35.38 10.72,35.15 11.16,34.92 11.6,34.68 12.04,34.45 12.49,34.22 12.93,33.98" fill="none" stroke="#ff00ff" stroke-width="1.1" opacity="0.95" pointer-events="stroke" class="debug-cross-street" data-kind="cross-street" data-label="Cross street" data-tooltip="Cross street
Sector 1
Road 375" data-sector-idx="1" data-road-id="375" data-street-key="-90|6923.77|17971.71|6974.65|17944.92" data-ct-off="-90"><title>Cross street
Sector 1
Road 375</title></polyline>
<polyline points="-0.36,61.33 0.08,61.09 0.52,60.86 0.96,60.63 1.41,60.39 1.85,60.16 2.29,59.93 2.73,59.7 3.18,59.46 3.62,59.23 4.06,59 4.5,58.76 4.94,58.53 5.39,58.3 5.83,58.06 6.27,57.83 6.71,57.6 7.16,57.37 7.6,57.13 8.04,56.9 8.48,56.67 8.93,56.43 9.37,56.2 9.81,55.97 10.25,55.74 10.7,55.5 11.14,55.27 11.58,55.04 12.02,54.8 12.47,54.57 12.91,54.34" fill="none" stroke="#ff00ff" stroke-width="1.1" opacity="0.95" pointer-events="stroke" class="debug-cross-street" data-kind="cross-street" data-label="Cross street" data-tooltip="Cross street
Sector 1
Road 376" data-sector-idx="1" data-road-id="376" data-street-key="0|6908.18|18081.63|6974.54|18046.69" data-ct-off="0"><title>Cross street
Sector 1
Road 376</title></polyline>
<polyline points="4.04,79.35 4.48,79.12 4.92,78.88 5.37,78.65 5.81,78.42 6.25,78.18 6.69,77.95 7.14,77.72 7.58,77.49 8.02,77.25 8.46,77.02 8.91,76.79 9.35,76.55 9.79,76.32 10.23,76.09 10.68,75.86 11.12,75.62 11.56,75.39 12,75.16 12.45,74.92 12.89,74.69 13.33,74.46 13.77,74.23 14.21,73.99 14.66,73.76 15.1,73.53 15.54,73.29 15.98,73.06" fill="none" stroke="#ff00ff" stroke-width="1.1" opacity="0.95" pointer-events="stroke" class="debug-cross-street" data-kind="cross-street" data-label="Cross street" data-tooltip="Cross street
Sector 1
Road 377" data-sector-idx="1" data-road-id="377" data-street-key="90|6930.19|18171.75|6989.92|18140.3" data-ct-off="90"><title>Cross street
Sector 1
Road 377</title></polyline>
<polyline points="-0.39,81.68 0.06,81.45 0.5,81.21 0.94,80.98 1.38,80.75 1.83,80.51 2.27,80.28 2.71,80.05" fill="none" stroke="#ff00ff" stroke-width="1.1" opacity="0.95" pointer-events="stroke" class="debug-cross-street" data-kind="cross-street" data-label="Cross street" data-tooltip="Cross street
Sector 1
Road 378" data-sector-idx="1" data-road-id="378" data-street-key="90|6908.07|18183.39|6923.56|18175.24" data-ct-off="90"><title>Cross street
Sector 1
Road 378</title></polyline>
<polyline points="2.05,94.37 1.58,94.2 1.11,94.04 0.64,93.87" fill="none" stroke="rgb(150, 110, 255)" stroke-width="1" opacity="0.9" pointer-events="stroke" stroke-dasharray="3 2" class="debug-cross-street-rejected" data-kind="cross-street-rejected" data-label="Rejected cross street" data-tooltip="Rejected cross street
Sector 0
Candidate ct:-170.87:run:0
Reason too-short
ct -170.87
Length 7.5" data-sector-idx="0" data-candidate-key="ct:-170.87:run:0" data-ct-off="-170.87" data-reason="too-short"><title>Rejected cross street
Sector 0
Candidate ct:-170.87:run:0
Reason too-short
ct -170.87
Length 7.5</title></polyline>
<polyline points="22.49,20.17 22.02,20.01 21.55,19.84 21.08,19.68" fill="none" stroke="rgb(150, 110, 255)" stroke-width="1" opacity="0.9" pointer-events="stroke" stroke-dasharray="3 2" class="debug-cross-street-rejected" data-kind="cross-street-rejected" data-label="Rejected cross street" data-tooltip="Rejected cross street
Sector 0
Candidate ct:213.11:run:0
Reason too-short
ct 213.11
Length 7.5" data-sector-idx="0" data-candidate-key="ct:213.11:run:0" data-ct-off="213.11" data-reason="too-short"><title>Rejected cross street
Sector 0
Candidate ct:213.11:run:0
Reason too-short
ct 213.11
Length 7.5</title></polyline>
<polyline points="8.76,27.13 9.2,26.9 9.64,26.66 10.08,26.43" fill="none" stroke="rgb(150, 110, 255)" stroke-width="1" opacity="0.9" pointer-events="stroke" stroke-dasharray="3 2" class="debug-cross-street-rejected" data-kind="cross-street-rejected" data-label="Rejected cross street" data-tooltip="Rejected cross street
Sector 1
Candidate ct:-130.06:run:0
Reason too-short
ct -130.06
Length 7.5" data-sector-idx="1" data-candidate-key="ct:-130.06:run:0" data-ct-off="-130.06" data-reason="too-short"><title>Rejected cross street
Sector 1
Candidate ct:-130.06:run:0
Reason too-short
ct -130.06
Length 7.5</title></polyline>
<polyline points="10.53,26.2 10.97,25.96 11.41,25.73 11.85,25.5" fill="none" stroke="rgb(150, 110, 255)" stroke-width="1" opacity="0.9" pointer-events="stroke" stroke-dasharray="3 2" class="debug-cross-street-rejected" data-kind="cross-street-rejected" data-label="Rejected cross street" data-tooltip="Rejected cross street
Sector 1
Candidate ct:-130.06:run:1
Reason too-short
ct -130.06
Length 7.5" data-sector-idx="1" data-candidate-key="ct:-130.06:run:1" data-ct-off="-130.06" data-reason="too-short"><title>Rejected cross street
Sector 1
Candidate ct:-130.06:run:1
Reason too-short
ct -130.06
Length 7.5</title></polyline>
<polyline points="5.66,28.76 6.1,28.53 6.54,28.29" fill="none" stroke="rgb(150, 110, 255)" stroke-width="1" opacity="0.9" pointer-events="stroke" stroke-dasharray="3 2" class="debug-cross-street-rejected" data-kind="cross-street-rejected" data-label="Rejected cross street" data-tooltip="Rejected cross street
Sector 1
Candidate ct:-130.06:run:2
Reason too-short
ct -130.06
Length 5" data-sector-idx="1" data-candidate-key="ct:-130.06:run:2" data-ct-off="-130.06" data-reason="too-short"><title>Rejected cross street
Sector 1
Candidate ct:-130.06:run:2
Reason too-short
ct -130.06
Length 5</title></polyline>
<polyline points="3.89,29.69 4.33,29.46" fill="none" stroke="rgb(150, 110, 255)" stroke-width="1" opacity="0.9" pointer-events="stroke" stroke-dasharray="3 2" class="debug-cross-street-rejected" data-kind="cross-street-rejected" data-label="Rejected cross street" data-tooltip="Rejected cross street
Sector 1
Candidate ct:-130.06:run:3
Reason too-short
ct -130.06
Length 2.5" data-sector-idx="1" data-candidate-key="ct:-130.06:run:3" data-ct-off="-130.06" data-reason="too-short"><title>Rejected cross street
Sector 1
Candidate ct:-130.06:run:3
Reason too-short
ct -130.06
Length 2.5</title></polyline>
<polyline points="7.87,27.59 8.31,27.36" fill="none" stroke="rgb(150, 110, 255)" stroke-width="1" opacity="0.9" pointer-events="stroke" stroke-dasharray="3 2" class="debug-cross-street-rejected" data-kind="cross-street-rejected" data-label="Rejected cross street" data-tooltip="Rejected cross street
Sector 1
Candidate ct:-130.06:run:4
Reason too-short
ct -130.06
Length 2.5" data-sector-idx="1" data-candidate-key="ct:-130.06:run:4" data-ct-off="-130.06" data-reason="too-short"><title>Rejected cross street
Sector 1
Candidate ct:-130.06:run:4
Reason too-short
ct -130.06
Length 2.5</title></polyline>
<polyline points="12.74,25.03 13.18,24.8" fill="none" stroke="rgb(150, 110, 255)" stroke-width="1" opacity="0.9" pointer-events="stroke" stroke-dasharray="3 2" class="debug-cross-street-rejected" data-kind="cross-street-rejected" data-label="Rejected cross street" data-tooltip="Rejected cross street
Sector 1
Candidate ct:-130.06:run:5
Reason too-short
ct -130.06
Length 2.5" data-sector-idx="1" data-candidate-key="ct:-130.06:run:5" data-ct-off="-130.06" data-reason="too-short"><title>Rejected cross street
Sector 1
Candidate ct:-130.06:run:5
Reason too-short
ct -130.06
Length 2.5</title></polyline>
<polyline points="12.35,83.34 12.8,83.11 13.24,82.87" fill="none" stroke="rgb(150, 110, 255)" stroke-width="1" opacity="0.9" pointer-events="stroke" stroke-dasharray="3 2" class="debug-cross-street-rejected" data-kind="cross-street-rejected" data-label="Rejected cross street" data-tooltip="Rejected cross street
Sector 1
Candidate ct:127.02:run:0
Reason too-short
ct 127.02
Length 5" data-sector-idx="1" data-candidate-key="ct:127.02:run:0" data-ct-off="127.02" data-reason="too-short"><title>Rejected cross street
Sector 1
Candidate ct:127.02:run:0
Reason too-short
ct 127.02
Length 5</title></polyline>
<polyline points="14.12,82.41 14.57,82.17" fill="none" stroke="rgb(150, 110, 255)" stroke-width="1" opacity="0.9" pointer-events="stroke" stroke-dasharray="3 2" class="debug-cross-street-rejected" data-kind="cross-street-rejected" data-label="Rejected cross street" data-tooltip="Rejected cross street
Sector 1
Candidate ct:127.02:run:1
Reason too-short
ct 127.02
Length 2.5" data-sector-idx="1" data-candidate-key="ct:127.02:run:1" data-ct-off="127.02" data-reason="too-short"><title>Rejected cross street
Sector 1
Candidate ct:127.02:run:1
Reason too-short
ct 127.02
Length 2.5</title></polyline>
<polyline points="0.69,31.84 1.11,31.57 1.53,31.3 1.95,31.03 2.37,30.76 2.79,30.49" fill="none" stroke="rgb(150, 110, 255)" stroke-width="1" opacity="0.9" pointer-events="stroke" stroke-dasharray="3 2" class="debug-cross-street-rejected" data-kind="cross-street-rejected" data-label="Rejected cross street" data-tooltip="Rejected cross street
Sector 2
Candidate ct:-43.84:run:0
Reason too-short
ct -43.84
Length 12.5" data-sector-idx="2" data-candidate-key="ct:-43.84:run:0" data-ct-off="-43.84" data-reason="too-short"><title>Rejected cross street
Sector 2
Candidate ct:-43.84:run:0
Reason too-short
ct -43.84
Length 12.5</title></polyline>
<polyline points="-0.49,43 -0.07,42.73 0.35,42.46 0.78,42.19 1.2,41.92 1.62,41.65 2.04,41.38 2.46,41.11" fill="none" stroke="rgb(150, 110, 255)" stroke-width="1" opacity="0.9" pointer-events="stroke" stroke-dasharray="3 2" class="debug-cross-street-rejected" data-kind="cross-street-rejected" data-label="Rejected cross street" data-tooltip="Rejected cross street
Sector 2
Candidate ct:0.00:run:0
Reason too-short
ct 0
Length 17.5" data-sector-idx="2" data-candidate-key="ct:0.00:run:0" data-ct-off="0" data-reason="too-short"><title>Rejected cross street
Sector 2
Candidate ct:0.00:run:0
Reason too-short
ct 0
Length 17.5</title></polyline>
<polyline points="-0.25,59.16 0.18,58.89" fill="none" stroke="rgb(150, 110, 255)" stroke-width="1" opacity="0.9" pointer-events="stroke" stroke-dasharray="3 2" class="debug-cross-street-rejected" data-kind="cross-street-rejected" data-label="Rejected cross street" data-tooltip="Rejected cross street
Sector 2
Candidate ct:68.73:run:0
Reason too-short
ct 68.73
Length 2.5" data-sector-idx="2" data-candidate-key="ct:68.73:run:0" data-ct-off="68.73" data-reason="too-short"><title>Rejected cross street
Sector 2
Candidate ct:68.73:run:0
Reason too-short
ct 68.73
Length 2.5</title></polyline>
<polyline points="13.49,98.33 -1.82,93.02" fill="none" stroke="#a8a8a8" stroke-width="0.8" opacity="0.8" pointer-events="stroke" stroke-dasharray="2 2" class="debug-cross-street-missing" data-kind="cross-street-missing" data-label="Missing cross street scanline" data-tooltip="Missing cross street scanline
Sector 0
ct -170.87
Runs 1
Candidates 1
Rejected 1
Pruned 0" data-sector-idx="0" data-ct-off="-170.87"><title>Missing cross street scanline
Sector 0
ct -170.87
Runs 1
Candidates 1
Rejected 1
Pruned 0</title></polyline>
<circle cx="5.83" cy="95.68" r="1.4" fill="#ffffff" stroke="#000000" stroke-width="0.8" pointer-events="visiblePainted" class="debug-cross-street-missing-point" data-kind="cross-street-missing-point" data-label="Missing cross street seed" data-tooltip="Missing cross street scanline
Sector 0
ct -170.87
Runs 1
Candidates 1
Rejected 1
Pruned 0" data-sector-idx="0" data-ct-off="-170.87"><title>Missing cross street scanline
Sector 0
ct -170.87
Runs 1
Candidates 1
Rejected 1
Pruned 0</title></circle>
<polyline points="38.65,25.77 23.34,20.47" fill="none" stroke="#a8a8a8" stroke-width="0.8" opacity="0.8" pointer-events="stroke" stroke-dasharray="2 2" class="debug-cross-street-missing" data-kind="cross-street-missing" data-label="Missing cross street scanline" data-tooltip="Missing cross street scanline
Sector 0
ct 213.11
Runs 1
Candidates 1
Rejected 1
Pruned 0" data-sector-idx="0" data-ct-off="213.11"><title>Missing cross street scanline
Sector 0
ct 213.11
Runs 1
Candidates 1
Rejected 1
Pruned 0</title></polyline>
<circle cx="31" cy="23.12" r="1.4" fill="#ffffff" stroke="#000000" stroke-width="0.8" pointer-events="visiblePainted" class="debug-cross-street-missing-point" data-kind="cross-street-missing-point" data-label="Missing cross street seed" data-tooltip="Missing cross street scanline
Sector 0
ct 213.11
Runs 1
Candidates 1
Rejected 1
Pruned 0" data-sector-idx="0" data-ct-off="213.11"><title>Missing cross street scanline
Sector 0
ct 213.11
Runs 1
Candidates 1
Rejected 1
Pruned 0</title></circle>
<polyline points="-11.69,37.89 2.65,30.34" fill="none" stroke="#a8a8a8" stroke-width="0.8" opacity="0.8" pointer-events="stroke" stroke-dasharray="2 2" class="debug-cross-street-missing" data-kind="cross-street-missing" data-label="Missing cross street scanline" data-tooltip="Missing cross street scanline
Sector 1
ct -130.06
Runs 6
Candidates 6
Rejected 6
Pruned 0" data-sector-idx="1" data-ct-off="-130.06"><title>Missing cross street scanline
Sector 1
ct -130.06
Runs 6
Candidates 6
Rejected 6
Pruned 0</title></polyline>
<circle cx="-4.52" cy="34.12" r="1.4" fill="#ffffff" stroke="#000000" stroke-width="0.8" pointer-events="visiblePainted" class="debug-cross-street-missing-point" data-kind="cross-street-missing-point" data-label="Missing cross street seed" data-tooltip="Missing cross street scanline
Sector 1
ct -130.06
Runs 6
Candidates 6
Rejected 6
Pruned 0" data-sector-idx="1" data-ct-off="-130.06"><title>Missing cross street scanline
Sector 1
ct -130.06
Runs 6
Candidates 6
Rejected 6
Pruned 0</title></circle>
<polyline points="12.27,83.39 26.6,75.84" fill="none" stroke="#a8a8a8" stroke-width="0.8" opacity="0.8" pointer-events="stroke" stroke-dasharray="2 2" class="debug-cross-street-missing" data-kind="cross-street-missing" data-label="Missing cross street scanline" data-tooltip="Missing cross street scanline
Sector 1
ct 127.02
Runs 2
Candidates 2
Rejected 2
Pruned 0" data-sector-idx="1" data-ct-off="127.02"><title>Missing cross street scanline
Sector 1
ct 127.02
Runs 2
Candidates 2
Rejected 2
Pruned 0</title></polyline>
<circle cx="19.43" cy="79.61" r="1.4" fill="#ffffff" stroke="#000000" stroke-width="0.8" pointer-events="visiblePainted" class="debug-cross-street-missing-point" data-kind="cross-street-missing-point" data-label="Missing cross street seed" data-tooltip="Missing cross street scanline
Sector 1
ct 127.02
Runs 2
Candidates 2
Rejected 2
Pruned 0" data-sector-idx="1" data-ct-off="127.02"><title>Missing cross street scanline
Sector 1
ct 127.02
Runs 2
Candidates 2
Rejected 2
Pruned 0</title></circle>
<polyline points="-10.77,39.17 2.88,30.44" fill="none" stroke="#a8a8a8" stroke-width="0.8" opacity="0.8" pointer-events="stroke" stroke-dasharray="2 2" class="debug-cross-street-missing" data-kind="cross-street-missing" data-label="Missing cross street scanline" data-tooltip="Missing cross street scanline
Sector 2
ct -43.84
Runs 1
Candidates 1
Rejected 1
Pruned 0" data-sector-idx="2" data-ct-off="-43.84"><title>Missing cross street scanline
Sector 2
ct -43.84
Runs 1
Candidates 1
Rejected 1
Pruned 0</title></polyline>
<circle cx="-3.95" cy="34.8" r="1.4" fill="#ffffff" stroke="#000000" stroke-width="0.8" pointer-events="visiblePainted" class="debug-cross-street-missing-point" data-kind="cross-street-missing-point" data-label="Missing cross street seed" data-tooltip="Missing cross street scanline
Sector 2
ct -43.84
Runs 1
Candidates 1
Rejected 1
Pruned 0" data-sector-idx="2" data-ct-off="-43.84"><title>Missing cross street scanline
Sector 2
ct -43.84
Runs 1
Candidates 1
Rejected 1
Pruned 0</title></circle>
<polyline points="-6.05,46.55 7.6,37.83" fill="none" stroke="#a8a8a8" stroke-width="0.8" opacity="0.8" pointer-events="stroke" stroke-dasharray="2 2" class="debug-cross-street-missing" data-kind="cross-street-missing" data-label="Missing cross street scanline" data-tooltip="Missing cross street scanline
Sector 2
ct 0
Runs 1
Candidates 1
Rejected 1
Pruned 0" data-sector-idx="2" data-ct-off="0"><title>Missing cross street scanline
Sector 2
ct 0
Runs 1
Candidates 1
Rejected 1
Pruned 0</title></polyline>
<circle cx="0.78" cy="42.19" r="1.4" fill="#ffffff" stroke="#000000" stroke-width="0.8" pointer-events="visiblePainted" class="debug-cross-street-missing-point" data-kind="cross-street-missing-point" data-label="Missing cross street seed" data-tooltip="Missing cross street scanline
Sector 2
ct 0
Runs 1
Candidates 1
Rejected 1
Pruned 0" data-sector-idx="2" data-ct-off="0"><title>Missing cross street scanline
Sector 2
ct 0
Runs 1
Candidates 1
Rejected 1
Pruned 0</title></circle>
<polyline points="1.36,58.13 15,49.41" fill="none" stroke="#a8a8a8" stroke-width="0.8" opacity="0.8" pointer-events="stroke" stroke-dasharray="2 2" class="debug-cross-street-missing" data-kind="cross-street-missing" data-label="Missing cross street scanline" data-tooltip="Missing cross street scanline
Sector 2
ct 68.73
Runs 1
Candidates 1
Rejected 1
Pruned 0" data-sector-idx="2" data-ct-off="68.73"><title>Missing cross street scanline
Sector 2
ct 68.73
Runs 1
Candidates 1
Rejected 1
Pruned 0</title></polyline>
<circle cx="8.18" cy="53.77" r="1.4" fill="#ffffff" stroke="#000000" stroke-width="0.8" pointer-events="visiblePainted" class="debug-cross-street-missing-point" data-kind="cross-street-missing-point" data-label="Missing cross street seed" data-tooltip="Missing cross street scanline
Sector 2
ct 68.73
Runs 1
Candidates 1
Rejected 1
Pruned 0" data-sector-idx="2" data-ct-off="68.73"><title>Missing cross street scanline
Sector 2
ct 68.73
Runs 1
Candidates 1
Rejected 1
Pruned 0</title></circle>
</g>
</svg>