<?xml version="1.0" encoding="UTF-8"?>
<svg xmlns="http://www.w3.org/2000/svg" width="48" height="116" viewBox="0 0 48 116">
<rect width="48" height="116" fill="#262626" />
<g fill="none" stroke-linecap="round" stroke-linejoin="round">
<polyline points="22,20 22,33 28,33 26,42 24,96 -18,95 -20,92 -39,92 -46,84 -63,84 -63,88 -66,89 -70,94 -72,94 -76,98 -76,81 -78,80 -78,78 -74,74 -68,72 -67,70 -61,68 -53,62 -45,59 -44,57 -38,55 -30,49 -22,46 -21,44 -15,42 -7,36 1,33 2,31 22,21 22,20" fill="none" stroke="#ffff00" stroke-width="1.8" opacity="1" pointer-events="stroke" class="debug-zone-boundary" data-kind="zone-boundary" data-label="Zone boundary" data-tooltip="Zone boundary"><title>zone boundary</title></polyline>
<polyline points="24.56,84.87 22.94,84.49 22.47,84.33 22,84.16 21.53,84 21.05,83.84 20.58,83.67 20.11,83.51 19.64,83.34 19.16,83.18 18.69,83.02 18.22,82.85 17.75,82.69 17.27,82.52 16.8,82.36 16.33,82.2 15.86,82.03 15.38,81.87" fill="none" stroke="#ff00ff" stroke-width="1.1" opacity="0.95" pointer-events="stroke" class="debug-cross-street" data-kind="cross-street" data-label="Cross street" data-tooltip="Cross street
Sector 0
Road 370" data-sector-idx="0" data-road-id="370" data-street-key="-90|7032.78|18199.37|6986.92|18184.35" data-ct-off="-90"><title>Cross street
Sector 0
Road 370</title></polyline>
<polyline points="25.51,65.8 23.64,65.68 23.17,65.52 22.7,65.35 22.23,65.19 21.75,65.03 21.28,64.86 20.81,64.7 20.34,64.54 19.87,64.37 19.39,64.21 18.92,64.04 18.45,63.88 17.98,63.72 17.5,63.55 17.03,63.39 16.56,63.22 16.09,63.06 15.61,62.9 15.14,62.73 14.67,62.57 14.2,62.41" fill="none" stroke="#ff00ff" stroke-width="1.1" opacity="0.95" pointer-events="stroke" class="debug-cross-street" data-kind="cross-street" data-label="Cross street" data-tooltip="Cross street
Sector 0
Road 371" data-sector-idx="0" data-road-id="371" data-street-key="0|7037.55|18104.01|6980.98|18087.03" data-ct-off="0"><title>Cross street
Sector 0
Road 371</title></polyline>
<polyline points="26.44,47.13 24.82,47.04 24.35,46.87 23.87,46.71 23.4,46.55 22.93,46.38 22.46,46.22 21.98,46.05 21.51,45.89 21.04,45.73 20.57,45.56 20.09,45.4 19.62,45.24 19.15,45.07 18.68,44.91 18.2,44.74 17.73,44.58 17.26,44.42 16.79,44.25 16.31,44.09 15.84,43.92 15.37,43.76 14.9,43.6 14.43,43.43" fill="none" stroke="#ff00ff" stroke-width="1.1" opacity="0.95" pointer-events="stroke" class="debug-cross-street" data-kind="cross-street" data-label="Cross street" data-tooltip="Cross street
Sector 0
Road 372" data-sector-idx="0" data-road-id="372" data-street-key="90|7042.22|18010.63|6982.13|17992.17" data-ct-off="90"><title>Cross street
Sector 0
Road 372</title></polyline>
<polyline points="22,26.8 20.8,26.59 20.32,26.43 19.85,26.26 19.38,26.1 18.91,25.94 18.43,25.77 17.96,25.61 17.49,25.44 17.02,25.28 16.54,25.12 16.07,24.95 15.6,24.79 15.13,24.62 14.65,24.46" fill="none" stroke="#ff00ff" stroke-width="1.1" opacity="0.95" pointer-events="stroke" class="debug-cross-street" data-kind="cross-street" data-label="Cross street" data-tooltip="Cross street
Sector 0
Road 373" data-sector-idx="0" data-road-id="373" data-street-key="180|7020|17909|6983.27|17897.3" data-ct-off="180"><title>Cross street
Sector 0
Road 373</title></polyline>
<polyline points="2.75,39.34 3.2,39.11 3.64,38.88 4.08,38.64 4.52,38.41 4.97,38.18 5.41,37.94 5.85,37.71 6.29,37.48 6.74,37.25 7.18,37.01 7.62,36.78 8.06,36.55 8.51,36.31 8.95,36.08 9.39,35.85 9.83,35.62 10.28,35.38 10.72,35.15 11.16,34.92 11.6,34.68 12.04,34.45 12.49,34.22 12.93,33.98" fill="none" stroke="#ff00ff" stroke-width="1.1" opacity="0.95" pointer-events="stroke" class="debug-cross-street" data-kind="cross-street" data-label="Cross street" data-tooltip="Cross street
Sector 1
Road 375" data-sector-idx="1" data-road-id="375" data-street-key="-90|6923.77|17971.71|6974.65|17944.92" data-ct-off="-90"><title>Cross street
Sector 1
Road 375</title></polyline>
<polyline points="-0.36,61.33 0.08,61.09 0.52,60.86 0.96,60.63 1.41,60.39 1.85,60.16 2.29,59.93 2.73,59.7 3.18,59.46 3.62,59.23 4.06,59 4.5,58.76 4.94,58.53 5.39,58.3 5.83,58.06 6.27,57.83 6.71,57.6 7.16,57.37 7.6,57.13 8.04,56.9 8.48,56.67 8.93,56.43 9.37,56.2 9.81,55.97 10.25,55.74 10.7,55.5 11.14,55.27 11.58,55.04 12.02,54.8 12.47,54.57 12.91,54.34" fill="none" stroke="#ff00ff" stroke-width="1.1" opacity="0.95" pointer-events="stroke" class="debug-cross-street" data-kind="cross-street" data-label="Cross street" data-tooltip="Cross street
Sector 1
Road 376" data-sector-idx="1" data-road-id="376" data-street-key="0|6908.18|18081.63|6974.54|18046.69" data-ct-off="0"><title>Cross street
Sector 1
Road 376</title></polyline>
<polyline points="4.04,79.35 4.48,79.12 4.92,78.88 5.37,78.65 5.81,78.42 6.25,78.18 6.69,77.95 7.14,77.72 7.58,77.49 8.02,77.25 8.46,77.02 8.91,76.79 9.35,76.55 9.79,76.32 10.23,76.09 10.68,75.86 11.12,75.62 11.56,75.39 12,75.16 12.45,74.92 12.89,74.69 13.33,74.46 13.77,74.23 14.21,73.99 14.66,73.76 15.1,73.53 15.54,73.29 15.98,73.06" fill="none" stroke="#ff00ff" stroke-width="1.1" opacity="0.95" pointer-events="stroke" class="debug-cross-street" data-kind="cross-street" data-label="Cross street" data-tooltip="Cross street
Sector 1
Road 377" data-sector-idx="1" data-road-id="377" data-street-key="90|6930.19|18171.75|6989.92|18140.3" data-ct-off="90"><title>Cross street
Sector 1
Road 377</title></polyline>
<polyline points="-0.39,81.68 0.06,81.45 0.5,81.21 0.94,80.98 1.38,80.75 1.83,80.51 2.27,80.28 2.71,80.05" fill="none" stroke="#ff00ff" stroke-width="1.1" opacity="0.95" pointer-events="stroke" class="debug-cross-street" data-kind="cross-street" data-label="Cross street" data-tooltip="Cross street
Sector 1
Road 378" data-sector-idx="1" data-road-id="378" data-street-key="90|6908.07|18183.39|6923.56|18175.24" data-ct-off="90"><title>Cross street
Sector 1
Road 378</title></polyline>
<polyline points="17.03,63.39 17.33,62.99 17.63,62.58 17.9,62.17 18.16,61.74 18.41,61.31 18.65,60.87 18.88,60.42 19.1,59.98 19.32,59.53 19.54,59.08 19.75,58.62 19.96,58.17 20.16,57.71 20.37,57.26 20.57,56.8 20.76,56.34 20.96,55.88 21.15,55.42 21.34,54.95 21.53,54.49 21.72,54.03 21.9,53.56 22.09,53.1 22.27,52.63 22.45,52.17 22.63,51.7 22.81,51.23 22.99,50.77 23.17,50.3 23.35,49.83 23.52,49.36 23.7,48.9 23.87,48.43 24.05,47.96 24.35,46.87" fill="none" stroke="rgb(230, 76, 76)" stroke-width="1.6" opacity="0.95" pointer-events="stroke" class="debug-ribbon" data-kind="ribbon-row" data-label="Ribbon row" data-tooltip="Ribbon row
Sector 0
Row 0
Family 0:0
Source seed-string
Generation 0
Slot n/a" data-row-id="0" data-family-key="0:0" data-family-root-row-id="0" data-source="seed-string" data-sector-idx="0" data-generation="0"><title>Ribbon row
Sector 0
Row 0
Family 0:0
Source seed-string
Generation 0
Slot n/a</title></polyline>
<polyline points="6.27,57.83 6.49,58.28 6.7,58.73 6.92,59.19 7.13,59.64 7.35,60.09 7.56,60.54 7.78,60.99 8,61.44 8.22,61.89 8.44,62.34 8.66,62.79 8.88,63.23 9.11,63.68 9.34,64.12 9.57,64.57 9.8,65.01 10.03,65.46 10.26,65.9 10.49,66.34 10.73,66.78 10.96,67.22 11.2,67.66 11.44,68.1 11.68,68.54 11.92,68.98 12.17,69.42 12.41,69.85 12.66,70.29 12.91,70.72 13.16,71.15 13.41,71.58 13.66,72.01 13.92,72.44 14.18,72.87 14.43,73.3 14.21,73.99" fill="none" stroke="rgb(230, 76, 76)" stroke-width="1.6" opacity="0.95" pointer-events="stroke" class="debug-ribbon" data-kind="ribbon-row" data-label="Ribbon row" data-tooltip="Ribbon row
Sector 1
Row 0
Family 1:0
Source seed-string
Generation 0
Slot n/a" data-row-id="0" data-family-key="1:0" data-family-root-row-id="0" data-source="seed-string" data-sector-idx="1" data-generation="0"><title>Ribbon row
Sector 1
Row 0
Family 1:0
Source seed-string
Generation 0
Slot n/a</title></polyline>
<circle cx="17.03" cy="63.39" r="2.8" fill="none" stroke="#ffd700" stroke-width="1.2" pointer-events="visiblePainted" class="debug-anchor" data-kind="anchor" data-label="Accepted starting seed" data-tooltip="Accepted starting seed
Sector 0
Seq 0
Street 1
Source seed-centroid
Family 0:0
Generation 0
Slot n/a
t 44.35" data-accepted="true" data-source="seed-centroid" data-anchor-role="starting seed" data-anchor-shape="circle" data-family-key="0:0" data-family-root-row-id="0" data-generation="0" data-sector-idx="0" data-street-idx="1" data-sequence="0" data-t="44.35"><title>Accepted starting seed
Sector 0
Seq 0
Street 1
Source seed-centroid
Family 0:0
Generation 0
Slot n/a
t 44.35</title></circle>
<text x="21.53" y="58.89" fill="#ffffff" stroke="#000000" stroke-width="1.3" paint-order="stroke fill" font-family="monospace" font-size="6.2" pointer-events="visiblePainted" class="debug-anchor-sequence" data-kind="anchor-sequence" data-label="Anchor sequence" data-tooltip="Accepted starting seed
Sector 0
Seq 0
Street 1
Source seed-centroid
Family 0:0
Generation 0
Slot n/a
t 44.35" data-sequence="0" data-source="seed-centroid" data-anchor-role="starting seed" data-family-key="0:0" data-family-root-row-id="0" data-generation="0" data-sector-idx="0" data-street-idx="1" data-t="44.35">0<title>Accepted starting seed
Sector 0
Seq 0
Street 1
Source seed-centroid
Family 0:0
Generation 0
Slot n/a
t 44.35</title></text>
<rect x="15.62" y="42.02" width="5.6" height="5.6" fill="none" stroke="#ff7800" stroke-width="1.2" pointer-events="visiblePainted" class="debug-anchor" data-kind="anchor" data-label="Failed follow-on anchor" data-tooltip="Failed follow-on anchor
Sector 0
Seq 1
Street 2
Source parallel-slot
Family 0:0
Generation 1
Slot 1
t 42" data-accepted="false" data-source="parallel-slot" data-anchor-role="follow-on anchor" data-anchor-shape="square" data-family-key="0:0" data-family-root-row-id="0" data-parent-row-id="0" data-generation="1" data-slot-index="1" data-sector-idx="0" data-street-idx="2" data-sequence="1" data-t="42"><title>Failed follow-on anchor
Sector 0
Seq 1
Street 2
Source parallel-slot
Family 0:0
Generation 1
Slot 1
t 42</title></rect>
<text x="22.92" y="40.32" fill="#ffffff" stroke="#000000" stroke-width="1.3" paint-order="stroke fill" font-family="monospace" font-size="6.2" pointer-events="visiblePainted" class="debug-anchor-sequence" data-kind="anchor-sequence" data-label="Anchor sequence" data-tooltip="Failed follow-on anchor
Sector 0
Seq 1
Street 2
Source parallel-slot
Family 0:0
Generation 1
Slot 1
t 42" data-sequence="1" data-source="parallel-slot" data-anchor-role="follow-on anchor" data-family-key="0:0" data-family-root-row-id="0" data-parent-row-id="0" data-generation="1" data-slot-index="1" data-sector-idx="0" data-street-idx="2" data-t="42">1<title>Failed follow-on anchor
Sector 0
Seq 1
Street 2
Source parallel-slot
Family 0:0
Generation 1
Slot 1
t 42</title></text>
<circle cx="7.6" cy="57.13" r="2.8" fill="none" stroke="#ff7800" stroke-width="1.2" pointer-events="visiblePainted" class="debug-anchor" data-kind="anchor" data-label="Failed starting seed" data-tooltip="Failed starting seed
Sector 1
Seq 0
Street 1
Source seed-centroid
Family 1:0
Generation 0
Slot n/a
t 45" data-accepted="false" data-source="seed-centroid" data-anchor-role="starting seed" data-anchor-shape="circle" data-family-key="1:0" data-family-root-row-id="0" data-generation="0" data-sector-idx="1" data-street-idx="1" data-sequence="0" data-t="45"><title>Failed starting seed
Sector 1
Seq 0
Street 1
Source seed-centroid
Family 1:0
Generation 0
Slot n/a
t 45</title></circle>
<text x="12.1" y="52.63" fill="#ffffff" stroke="#000000" stroke-width="1.3" paint-order="stroke fill" font-family="monospace" font-size="6.2" pointer-events="visiblePainted" class="debug-anchor-sequence" data-kind="anchor-sequence" data-label="Anchor sequence" data-tooltip="Failed starting seed
Sector 1
Seq 0
Street 1
Source seed-centroid
Family 1:0
Generation 0
Slot n/a
t 45" data-sequence="0" data-source="seed-centroid" data-anchor-role="starting seed" data-family-key="1:0" data-family-root-row-id="0" data-generation="0" data-sector-idx="1" data-street-idx="1" data-t="45">0<title>Failed starting seed
Sector 1
Seq 0
Street 1
Source seed-centroid
Family 1:0
Generation 0
Slot n/a
t 45</title></text>
<polygon points="6.27,55.03 9.07,57.83 6.27,60.63 3.47,57.83" fill="none" stroke="#ffd700" stroke-width="1.2" pointer-events="visiblePainted" class="debug-anchor" data-kind="anchor" data-label="Accepted new family anchor" data-tooltip="Accepted new family anchor
Sector 1
Seq 0
Street 1
Source seed-gap
Family 1:0
Generation 0
Slot n/a
t 37.5" data-accepted="true" data-source="seed-gap" data-anchor-role="new family anchor" data-anchor-shape="diamond" data-family-key="1:0" data-family-root-row-id="0" data-generation="0" data-sector-idx="1" data-street-idx="1" data-sequence="0" data-t="37.5"><title>Accepted new family anchor
Sector 1
Seq 0
Street 1
Source seed-gap
Family 1:0
Generation 0
Slot n/a
t 37.5</title></polygon>
<text x="10.77" y="53.33" fill="#ffffff" stroke="#000000" stroke-width="1.3" paint-order="stroke fill" font-family="monospace" font-size="6.2" pointer-events="visiblePainted" class="debug-anchor-sequence" data-kind="anchor-sequence" data-label="Anchor sequence" data-tooltip="Accepted new family anchor
Sector 1
Seq 0
Street 1
Source seed-gap
Family 1:0
Generation 0
Slot n/a
t 37.5" data-sequence="0" data-source="seed-gap" data-anchor-role="new family anchor" data-family-key="1:0" data-family-root-row-id="0" data-generation="0" data-sector-idx="1" data-street-idx="1" data-t="37.5">0<title>Accepted new family anchor
Sector 1
Seq 0
Street 1
Source seed-gap
Family 1:0
Generation 0
Slot n/a
t 37.5</title></text>
<rect x="5.75" y="74.17" width="5.6" height="5.6" fill="none" stroke="#ff7800" stroke-width="1.2" pointer-events="visiblePainted" class="debug-anchor" data-kind="anchor" data-label="Failed follow-on anchor" data-tooltip="Failed follow-on anchor
Sector 1
Seq 1
Street 2
Source parallel-slot
Family 1:0
Generation 1
Slot -1
t 25.5" data-accepted="false" data-source="parallel-slot" data-anchor-role="follow-on anchor" data-anchor-shape="square" data-family-key="1:0" data-family-root-row-id="0" data-parent-row-id="0" data-generation="1" data-slot-index="-1" data-sector-idx="1" data-street-idx="2" data-sequence="1" data-t="25.5"><title>Failed follow-on anchor
Sector 1
Seq 1
Street 2
Source parallel-slot
Family 1:0
Generation 1
Slot -1
t 25.5</title></rect>
<text x="13.05" y="72.47" fill="#ffffff" stroke="#000000" stroke-width="1.3" paint-order="stroke fill" font-family="monospace" font-size="6.2" pointer-events="visiblePainted" class="debug-anchor-sequence" data-kind="anchor-sequence" data-label="Anchor sequence" data-tooltip="Failed follow-on anchor
Sector 1
Seq 1
Street 2
Source parallel-slot
Family 1:0
Generation 1
Slot -1
t 25.5" data-sequence="1" data-source="parallel-slot" data-anchor-role="follow-on anchor" data-family-key="1:0" data-family-root-row-id="0" data-parent-row-id="0" data-generation="1" data-slot-index="-1" data-sector-idx="1" data-street-idx="2" data-t="25.5">1<title>Failed follow-on anchor
Sector 1
Seq 1
Street 2
Source parallel-slot
Family 1:0
Generation 1
Slot -1
t 25.5</title></text>
<circle cx="17.03" cy="63.39" r="1.8" fill="#50c8ff" stroke="#ffffff" stroke-width="0.8" pointer-events="visiblePainted" class="debug-junction" data-kind="junction" data-label="Confirmed junction" data-tooltip="Confirmed junction
Sector 0
Street 1
Row 0
Family 0:0" data-row-id="0" data-family-key="0:0" data-family-root-row-id="0" data-sector-idx="0" data-street-idx="1"><title>Confirmed junction
Sector 0
Street 1
Row 0
Family 0:0</title></circle>
<circle cx="24.35" cy="46.87" r="1.8" fill="#50c8ff" stroke="#ffffff" stroke-width="0.8" pointer-events="visiblePainted" class="debug-junction" data-kind="junction" data-label="Confirmed junction" data-tooltip="Confirmed junction
Sector 0
Street 2
Row 0
Family 0:0" data-row-id="0" data-family-key="0:0" data-family-root-row-id="0" data-sector-idx="0" data-street-idx="2"><title>Confirmed junction
Sector 0
Street 2
Row 0
Family 0:0</title></circle>
<circle cx="6.27" cy="57.83" r="1.8" fill="#50c8ff" stroke="#ffffff" stroke-width="0.8" pointer-events="visiblePainted" class="debug-junction" data-kind="junction" data-label="Confirmed junction" data-tooltip="Confirmed junction
Sector 1
Street 1
Row 0
Family 1:0" data-row-id="0" data-family-key="1:0" data-family-root-row-id="0" data-sector-idx="1" data-street-idx="1"><title>Confirmed junction
Sector 1
Street 1
Row 0
Family 1:0</title></circle>
<circle cx="14.21" cy="73.99" r="1.8" fill="#50c8ff" stroke="#ffffff" stroke-width="0.8" pointer-events="visiblePainted" class="debug-junction" data-kind="junction" data-label="Confirmed junction" data-tooltip="Confirmed junction
Sector 1
Street 2
Row 0
Family 1:0" data-row-id="0" data-family-key="1:0" data-family-root-row-id="0" data-sector-idx="1" data-street-idx="2"><title>Confirmed junction
Sector 1
Street 2
Row 0
Family 1:0</title></circle>
</g>
</svg>