<?xml version="1.0" encoding="UTF-8"?>
<svg xmlns="http://www.w3.org/2000/svg" width="44" height="337" viewBox="0 0 44 337">
<rect width="44" height="337" fill="#262626" />
<g fill="none" stroke-linecap="round" stroke-linejoin="round">
<polyline points="-59,9 -48,9 -41,17 -22,17 -20,20 24,21 9,317 -3,316 -8,314 -14,314 -19,312 -25,312 -46,307 -52,307 -57,305 -63,305 -68,303 -74,303 -79,301 -85,301 -90,299 -132,292 -128,261 -118,260 -116,249 -111,250 -110,248 -91,246 -74,233 -69,234 -67,236 -63,236 -61,182 -72,169 -83,169 -87,171 -98,172 -99,180 -101,183 -102,237 -126,243 -131,243 -135,245 -145,246 -145,238 -143,237 -143,163 -179,128 -77,25 -75,25 -75,27 -71,29 -71,48 -63,55 -63,63 -58,67 -58,80 -56,81 -55,67 -60,63 -60,55 -68,48 -68,29 -73,24 -73,21 -69,19 -65,14 -63,14 -59,9 -59,9" fill="none" stroke="#ffff00" stroke-width="1.8" opacity="1" pointer-events="stroke" class="debug-zone-boundary" data-kind="zone-boundary" data-label="Zone boundary" data-tooltip="Zone boundary"><title>zone boundary</title></polyline>
<polyline points="0.59,23.92 1,24.21 1.4,24.51 1.81,24.8 2.22,25.09 2.62,25.38 3.03,25.67 3.44,25.96 3.84,26.25 4.25,26.54 4.65,26.84 5.06,27.13 5.47,27.42 5.87,27.71 6.28,28 6.69,28.29 7.09,28.58 7.5,28.88 7.91,29.17 8.31,29.46 8.72,29.75 9.12,30.04 9.53,30.33 9.94,30.62 10.34,30.91 10.75,31.21 11.16,31.5 11.56,31.79 11.97,32.08 12.38,32.37 12.78,32.66 13.19,32.95 13.59,33.24 14,33.54 14.41,33.83 14.81,34.12 15.22,34.41 15.63,34.7 16.03,34.99 16.44,35.28 16.85,35.58 17.25,35.87 17.66,36.16 18.06,36.45 18.47,36.74 18.88,37.03 19.28,37.32 19.69,37.61" fill="none" stroke="#ff00ff" stroke-width="1.1" opacity="0.95" pointer-events="stroke" class="debug-cross-street" data-kind="cross-street" data-label="Cross street" data-tooltip="Cross street
Sector 0
Road 351" data-sector-idx="0" data-road-id="351" data-street-key="0|6912.95|18284.61|7008.45|18353.07" data-ct-off="0"><title>Cross street
Sector 0
Road 351</title></polyline>
<polyline points="17.63,42.31 17.97,42.67 18.32,43.03 18.66,43.39 19.01,43.75 19.35,44.12 19.7,44.48 20.04,44.84 20.39,45.2 20.73,45.57 21.07,45.93 21.42,46.29" fill="none" stroke="#ff00ff" stroke-width="1.1" opacity="0.95" pointer-events="stroke" class="debug-cross-street" data-kind="cross-street" data-label="Cross street" data-tooltip="Cross street
Sector 1
Road 352" data-sector-idx="1" data-road-id="352" data-street-key="-90|6998.14|18376.53|7017.1|18396.45" data-ct-off="-90"><title>Cross street
Sector 1
Road 352</title></polyline>
<polyline points="0.8,50.73 1.14,51.09 1.49,51.45 1.83,51.82 2.18,52.18 2.52,52.54 2.86,52.9 3.21,53.27 3.55,53.63 3.9,53.99 4.24,54.35 4.59,54.71 4.93,55.08 5.28,55.44 5.62,55.8 5.97,56.16 6.31,56.53 6.66,56.89 7,57.25 7.35,57.61 7.69,57.97 8.03,58.34 8.38,58.7 8.72,59.06 9.07,59.42 9.41,59.79 9.76,60.15 10.1,60.51 10.45,60.87 10.79,61.23 11.14,61.6 11.48,61.96 11.83,62.32 12.17,62.68 12.52,63.05 12.86,63.41 13.2,63.77 13.55,64.13 13.89,64.49 14.24,64.86 14.58,65.22 14.93,65.58 15.27,65.94 15.62,66.31 15.96,66.67" fill="none" stroke="#ff00ff" stroke-width="1.1" opacity="0.95" pointer-events="stroke" class="debug-cross-street" data-kind="cross-street" data-label="Cross street" data-tooltip="Cross street
Sector 1
Road 353" data-sector-idx="1" data-road-id="353" data-street-key="0|6913.98|18418.65|6989.81|18498.34" data-ct-off="0"><title>Cross street
Sector 1
Road 353</title></polyline>
<polyline points="0.51,76.54 0.85,76.9 1.2,77.26 1.54,77.63 1.89,77.99 2.23,78.35 2.58,78.71 2.92,79.08 3.27,79.44 3.61,79.8 3.96,80.16 4.3,80.52 4.65,80.89 4.99,81.25 5.33,81.61 5.68,81.97" fill="none" stroke="#ff00ff" stroke-width="1.1" opacity="0.95" pointer-events="stroke" class="debug-cross-street" data-kind="cross-street" data-label="Cross street" data-tooltip="Cross street
Sector 1
Road 354" data-sector-idx="1" data-road-id="354" data-street-key="90|6912.55|18547.7|6938.4|18574.87" data-ct-off="90"><title>Cross street
Sector 1
Road 354</title></polyline>
<polyline points="8.48,79.6 8.95,79.77 9.43,79.93 9.9,80.09 10.37,80.26 10.84,80.42 11.32,80.59 11.79,80.75 12.26,80.91 12.73,81.08 13.21,81.24 13.68,81.4 14.15,81.57 14.62,81.73" fill="none" stroke="#ff00ff" stroke-width="1.1" opacity="0.95" pointer-events="stroke" class="debug-cross-street" data-kind="cross-street" data-label="Cross street" data-tooltip="Cross street
Sector 2
Road 355" data-sector-idx="2" data-road-id="355" data-street-key="14.15|6952.4|18563.02|6983.12|18573.65" data-ct-off="14.15"><title>Cross street
Sector 2
Road 355</title></polyline>
<polyline points="-0.06,95.11 0.41,95.28 0.89,95.44 1.36,95.61 1.83,95.77 2.3,95.93 2.78,96.1 3.25,96.26 3.72,96.42 4.19,96.59 4.67,96.75 5.14,96.91 5.61,97.08 6.08,97.24 6.56,97.4 7.03,97.57 7.5,97.73 7.97,97.89 8.45,98.06 8.92,98.22 9.39,98.38 9.86,98.55 10.34,98.71 10.81,98.87 11.28,99.04 11.75,99.2 12.23,99.36 12.7,99.53" fill="none" stroke="#ff00ff" stroke-width="1.1" opacity="0.95" pointer-events="stroke" class="debug-cross-street" data-kind="cross-street" data-label="Cross street" data-tooltip="Cross street
Sector 2
Road 356" data-sector-idx="2" data-road-id="356" data-street-key="101.4|6909.7|18640.57|6973.49|18662.64" data-ct-off="101.4"><title>Cross street
Sector 2
Road 356</title></polyline>
<polyline points="-0.27,114.09 0.2,114.25 0.67,114.41 1.14,114.58 1.62,114.74 2.09,114.9 2.56,115.07 3.03,115.23 3.51,115.39 3.98,115.56 4.45,115.72 4.92,115.89 5.4,116.05 5.87,116.21 6.34,116.38 6.81,116.54 7.29,116.7 7.76,116.87 8.23,117.03 8.7,117.19 9.18,117.36 9.65,117.52 10.12,117.68 10.59,117.85 11.07,118.01 11.54,118.17 12.01,118.34 12.48,118.5 12.96,118.66 13.43,118.83 13.9,118.99 14.37,119.15 14.85,119.32 15.32,119.48 15.79,119.65" fill="none" stroke="#ff00ff" stroke-width="1.1" opacity="0.95" pointer-events="stroke" class="debug-cross-street" data-kind="cross-street" data-label="Cross street" data-tooltip="Cross street
Sector 2
Road 357" data-sector-idx="2" data-road-id="357" data-street-key="191.4|6908.63|18735.44|6988.96|18763.23" data-ct-off="191.4"><title>Cross street
Sector 2
Road 357</title></polyline>
<polyline points="-0.49,133.06 -0.02,133.22 0.46,133.39 0.93,133.55 1.4,133.71 1.87,133.88 2.35,134.04 2.82,134.2 3.29,134.37 3.76,134.53 4.24,134.69 4.71,134.86 5.18,135.02 5.65,135.18 6.13,135.35 6.6,135.51 7.07,135.68 7.54,135.84 8.02,136 8.49,136.17 8.96,136.33 9.43,136.49 9.91,136.66 10.38,136.82 10.85,136.98 11.32,137.15 11.8,137.31 12.27,137.47 12.74,137.64 13.21,137.8 13.69,137.96 14.16,138.13 14.63,138.29 15.1,138.45 15.58,138.62 16.05,138.78 16.52,138.94 16.99,139.11 17.47,139.27 18.01,139.56" fill="none" stroke="#ff00ff" stroke-width="1.1" opacity="0.95" pointer-events="stroke" class="debug-cross-street" data-kind="cross-street" data-label="Cross street" data-tooltip="Cross street
Sector 2
Road 358" data-sector-idx="2" data-road-id="358" data-street-key="281.4|6907.55|18830.3|7000.06|18862.8" data-ct-off="281.4"><title>Cross street
Sector 2
Road 358</title></polyline>
<polyline points="-0.23,152.2 0.24,152.36 0.71,152.52 1.19,152.69 1.66,152.85 2.13,153.01 2.6,153.18 3.08,153.34 3.55,153.5 4.02,153.67 4.49,153.83 4.97,153.99 5.44,154.16 5.91,154.32 6.38,154.48 6.86,154.65 7.33,154.81 7.8,154.97 8.27,155.14 8.75,155.3 9.22,155.46 9.69,155.63 10.16,155.79 10.64,155.96 11.11,156.12 11.58,156.28 12.05,156.45 12.53,156.61 13,156.77 13.47,156.94 13.94,157.1 14.42,157.26 14.89,157.43 15.36,157.59 15.83,157.75 16.31,157.92 17.08,157.92" fill="none" stroke="#ff00ff" stroke-width="1.1" opacity="0.95" pointer-events="stroke" class="debug-cross-street" data-kind="cross-street" data-label="Cross street" data-tooltip="Cross street
Sector 2
Road 359" data-sector-idx="2" data-road-id="359" data-street-key="371.4|6908.84|18925.98|6995.42|18954.62" data-ct-off="371.4"><title>Cross street
Sector 2
Road 359</title></polyline>
<polyline points="-0.45,171.17 0.03,171.33 0.5,171.49 0.97,171.66 1.44,171.82 1.92,171.99 2.39,172.15 2.86,172.31 3.33,172.48 3.81,172.64 4.28,172.8 4.75,172.97 5.22,173.13 5.7,173.29 6.17,173.46 6.64,173.62 7.11,173.78 7.59,173.95 8.06,174.11 8.53,174.27 9,174.44 9.48,174.6 9.95,174.76 10.42,174.93 10.89,175.09 11.37,175.25 11.84,175.42 12.31,175.58 12.78,175.75 13.26,175.91 13.73,176.07 14.2,176.24 14.67,176.4 15.15,176.56" fill="none" stroke="#ff00ff" stroke-width="1.1" opacity="0.95" pointer-events="stroke" class="debug-cross-street" data-kind="cross-street" data-label="Cross street" data-tooltip="Cross street
Sector 2
Road 360" data-sector-idx="2" data-road-id="360" data-street-key="461.4|6907.77|19020.84|6985.73|19047.81" data-ct-off="461.4"><title>Cross street
Sector 2
Road 360</title></polyline>
<polyline points="14.68,86.55 15.03,86.9 15.38,87.26 15.73,87.62 16.08,87.97 16.43,88.33 16.78,88.69 17.13,89.05 17.48,89.4 17.83,89.76 18.18,90.12 18.53,90.47 18.88,90.83 19.23,91.19" fill="none" stroke="#ff00ff" stroke-width="1.1" opacity="0.95" pointer-events="stroke" class="debug-cross-street" data-kind="cross-street" data-label="Cross street" data-tooltip="Cross street
Sector 3
Road 364" data-sector-idx="3" data-road-id="364" data-street-key="0|6983.41|18597.73|7006.16|18620.94" data-ct-off="0"><title>Cross street
Sector 3
Road 364</title></polyline>
<polyline points="14.78,112.36 15.13,112.71 15.48,113.07 15.83,113.43 16.18,113.79 16.53,114.14 16.88,114.5 17.23,114.86 17.58,115.21 17.93,115.57 18.28,115.93" fill="none" stroke="#ff00ff" stroke-width="1.1" opacity="0.95" pointer-events="stroke" class="debug-cross-street" data-kind="cross-street" data-label="Cross street" data-tooltip="Cross street
Sector 3
Road 365" data-sector-idx="3" data-road-id="365" data-street-key="90|6983.9|18726.79|7001.4|18744.64" data-ct-off="90"><title>Cross street
Sector 3
Road 365</title></polyline>
<polyline points="14.73,204.63 13,204.04 12.67,203.66 12.35,203.28 12.03,202.9 11.7,202.52 11.38,202.14 11.05,201.76 10.73,201.38 10.4,201 10.08,200.61 9.76,200.23 9.43,199.85 9.11,199.47 8.78,199.09 8.46,198.71 8.13,198.33 7.81,197.95 7.49,197.57 7.16,197.19 6.84,196.81 6.51,196.43 6.19,196.05 5.86,195.67 5.54,195.29 5.22,194.91 4.89,194.53 4.57,194.14 4.24,193.76 3.92,193.38 3.59,193 3.27,192.62 2.95,192.24 2.62,191.86 2.3,191.48 1.97,191.1" fill="none" stroke="#ff00ff" stroke-width="1.1" opacity="0.95" pointer-events="stroke" class="debug-cross-street" data-kind="cross-street" data-label="Cross street" data-tooltip="Cross street
Sector 4
Road 366" data-sector-idx="4" data-road-id="366" data-street-key="0|6983.63|19188.15|6919.87|19120.5" data-ct-off="0"><title>Cross street
Sector 4
Road 366</title></polyline>
<polyline points="-0.45,260.93 -0.34,261.42 -0.22,261.9 -0.1,262.39 0.01,262.88 0.13,263.36 0.24,263.85 0.36,264.33" fill="none" stroke="#ff00ff" stroke-width="1.1" opacity="0.95" pointer-events="stroke" class="debug-cross-street" data-kind="cross-street" data-label="Cross street" data-tooltip="Cross street
Sector 5
Road 367" data-sector-idx="5" data-road-id="367" data-street-key="0|6907.75|19469.64|6911.78|19486.67" data-ct-off="0"><title>Cross street
Sector 5
Road 367</title></polyline>
<polyline points="0.6,245.43 0.71,245.91 0.83,246.4 0.94,246.89 1.06,247.37 1.17,247.86 1.29,248.35 1.4,248.83 1.52,249.32 1.63,249.81 1.75,250.29 1.86,250.78 1.98,251.27 2.09,251.75 2.21,252.24 2.32,252.73 2.44,253.21 2.55,253.7 2.67,254.19 2.78,254.67 2.9,255.16 3.01,255.65 3.13,256.13 3.24,256.62 3.36,257.11 3.47,257.59 3.59,258.08 3.7,258.57 3.82,259.05 3.93,259.54 4.05,260.03 4.16,260.51 4.27,261 4.39,261.49 4.5,261.97 4.62,262.46 4.73,262.95 4.85,263.43 4.96,263.92 5.08,264.41 5.19,264.89 5.31,265.38 5.42,265.86 5.54,266.35 5.65,266.84 5.77,267.32 5.88,267.81 6,268.3 6.11,268.78 6.23,269.27 6.34,269.76 6.46,270.24 6.57,270.73 6.69,271.22 6.8,271.7 6.92,272.19 7.03,272.68 7.15,273.16 7.26,273.65 7.38,274.14 7.49,274.62 7.61,275.11 7.72,275.6 7.84,276.08 7.95,276.57 8.07,277.06 8.18,277.54 8.29,278.03 8.41,278.52 8.52,279 8.64,279.49 8.75,279.98 8.87,280.46 8.98,280.95 9.1,281.44 9.21,281.92 9.33,282.41 9.44,282.9 9.56,283.38" fill="none" stroke="#ff00ff" stroke-width="1.1" opacity="0.95" pointer-events="stroke" class="debug-cross-street" data-kind="cross-street" data-label="Cross street" data-tooltip="Cross street
Sector 6
Road 368" data-sector-idx="6" data-road-id="368" data-street-key="0|6913|19392.13|6957.79|19581.92" data-ct-off="0"><title>Cross street
Sector 6
Road 368</title></polyline>
<polyline points="14.04,218.2 12.83,218.33 12.42,218.62 12.01,218.91 11.6,219.2 11.19,219.49 10.78,219.77 10.37,220.06 9.97,220.35 9.56,220.64 9.15,220.93 8.74,221.21 8.33,221.5 7.92,221.79 7.51,222.08 7.11,222.37 6.7,222.66 6.29,222.94 5.88,223.23 5.47,223.52 5.06,223.81 4.65,224.1 4.24,224.38" fill="none" stroke="#ff00ff" stroke-width="1.1" opacity="0.95" pointer-events="stroke" class="debug-cross-street" data-kind="cross-street" data-label="Cross street" data-tooltip="Cross street
Sector 7
Road 369" data-sector-idx="7" data-road-id="369" data-street-key="0|6980.2|19256.01|6931.22|19286.92" data-ct-off="0"><title>Cross street
Sector 7
Road 369</title></polyline>
<polyline points="12.48,118.5 11.92,119.92 11.75,120.4 11.59,120.87 11.42,121.34 11.25,121.81 11.09,122.28 10.92,122.75 10.75,123.22 10.59,123.7 10.43,124.17 10.27,124.64 10.11,125.12 9.96,125.59 9.81,126.07 9.67,126.55 9.52,127.03 9.38,127.51 9.24,127.99 9.11,128.47 8.98,128.95 8.85,129.44 8.73,129.92 8.6,130.41 8.48,130.89 8.36,131.38 8.24,131.86 8.12,132.35 8,132.83 7.87,133.32 7.75,133.8 7.63,134.28 7.5,134.77 7.37,135.25 7.25,135.74 7.12,136.22 6.99,136.7 6.86,137.19 6.73,137.67 6.6,138.15 6.47,138.63 6.33,139.11 6.2,139.6 6.06,140.08 5.92,140.56 5.78,141.04 5.64,141.52 5.5,142 5.36,142.48 5.21,142.95 5.07,143.43 4.93,143.91 4.78,144.39 4.63,144.87 4.49,145.35 4.34,145.82 4.19,146.3 4.05,146.78 3.9,147.26 3.75,147.73 3.6,148.21 3.44,148.69 3.29,149.16 3.14,149.64 2.98,150.11 2.82,150.59 2.66,151.06 2.13,153.01" fill="none" stroke="rgb(230, 76, 76)" stroke-width="1.6" opacity="0.95" pointer-events="stroke" class="debug-ribbon" data-kind="ribbon-row" data-label="Ribbon row" data-tooltip="Ribbon row
Sector 2
Row 0
Family 2:0
Source seed-string
Generation 0
Slot n/a" data-row-id="0" data-family-key="2:0" data-family-root-row-id="0" data-source="seed-string" data-sector-idx="2" data-generation="0"><title>Ribbon row
Sector 2
Row 0
Family 2:0
Source seed-string
Generation 0
Slot n/a</title></polyline>
<polyline points="13.21,137.8 8.75,155.3 8.61,155.78 8.47,156.26 8.33,156.74 8.19,157.22 8.05,157.7 7.9,158.18 7.76,158.66 7.61,159.14 7.46,159.61 7.32,160.09 7.17,160.57 7.01,161.05 6.86,161.52 6.71,162 6.55,162.47 6.39,162.95 6.23,163.42 6.07,163.89 5.92,164.37 5.76,164.84 5.62,165.32 5.48,165.8 5.35,166.29 5.23,166.77 5.12,167.26 5.03,167.75 4.95,168.24 4.88,168.74 4.82,169.24 4.78,169.73 4.74,170.23 4.72,170.73 4.71,171.23 4.28,172.8" fill="none" stroke="rgb(230, 76, 76)" stroke-width="1.6" opacity="0.95" pointer-events="stroke" class="debug-ribbon" data-kind="ribbon-row" data-label="Ribbon row" data-tooltip="Ribbon row
Sector 2
Row 1
Family 2:0
Source parallel-string
Generation 1
Slot 1" data-row-id="1" data-family-key="2:0" data-family-root-row-id="0" data-parent-row-id="0" data-source="parallel-string" data-sector-idx="2" data-generation="1" data-slot-index="1"><title>Ribbon row
Sector 2
Row 1
Family 2:0
Source parallel-string
Generation 1
Slot 1</title></polyline>
<polyline points="6.81,116.54 1.4,133.71" fill="none" stroke="rgb(166, 76, 230)" stroke-width="1.6" opacity="0.95" pointer-events="stroke" class="debug-ribbon" data-kind="ribbon-row" data-label="Ribbon row" data-tooltip="Ribbon row
Sector 2
Row 2
Family 2:2
Source seed-string
Generation 0
Slot n/a" data-row-id="2" data-family-key="2:2" data-family-root-row-id="2" data-source="seed-string" data-sector-idx="2" data-generation="0"><title>Ribbon row
Sector 2
Row 2
Family 2:2
Source seed-string
Generation 0
Slot n/a</title></polyline>
<circle cx="9.41" cy="59.79" r="2.8" fill="none" stroke="#ff7800" stroke-width="1.2" pointer-events="visiblePainted" class="debug-anchor" data-kind="anchor" data-label="Failed starting seed" data-tooltip="Failed starting seed
Sector 1
Seq 0
Street 1
Source seed-centroid
Family 1:0
Generation 0
Slot n/a
t 62.5" data-accepted="false" data-source="seed-centroid" data-anchor-role="starting seed" data-anchor-shape="circle" data-family-key="1:0" data-family-root-row-id="0" data-generation="0" data-sector-idx="1" data-street-idx="1" data-sequence="0" data-t="62.5"><title>Failed starting seed
Sector 1
Seq 0
Street 1
Source seed-centroid
Family 1:0
Generation 0
Slot n/a
t 62.5</title></circle>
<text x="13.91" y="55.29" fill="#ffffff" stroke="#000000" stroke-width="1.3" paint-order="stroke fill" font-family="monospace" font-size="6.2" pointer-events="visiblePainted" class="debug-anchor-sequence" data-kind="anchor-sequence" data-label="Anchor sequence" data-tooltip="Failed starting seed
Sector 1
Seq 0
Street 1
Source seed-centroid
Family 1:0
Generation 0
Slot n/a
t 62.5" data-sequence="0" data-source="seed-centroid" data-anchor-role="starting seed" data-family-key="1:0" data-family-root-row-id="0" data-generation="0" data-sector-idx="1" data-street-idx="1" data-t="62.5">0<title>Failed starting seed
Sector 1
Seq 0
Street 1
Source seed-centroid
Family 1:0
Generation 0
Slot n/a
t 62.5</title></text>
<polygon points="8.38,55.9 11.18,58.7 8.38,61.5 5.58,58.7" fill="none" stroke="#ff7800" stroke-width="1.2" pointer-events="visiblePainted" class="debug-anchor" data-kind="anchor" data-label="Failed new family anchor" data-tooltip="Failed new family anchor
Sector 1
Seq 0
Street 1
Source seed-gap
Family 1:0
Generation 0
Slot n/a
t 55" data-accepted="false" data-source="seed-gap" data-anchor-role="new family anchor" data-anchor-shape="diamond" data-family-key="1:0" data-family-root-row-id="0" data-generation="0" data-sector-idx="1" data-street-idx="1" data-sequence="0" data-t="55"><title>Failed new family anchor
Sector 1
Seq 0
Street 1
Source seed-gap
Family 1:0
Generation 0
Slot n/a
t 55</title></polygon>
<text x="12.88" y="54.2" fill="#ffffff" stroke="#000000" stroke-width="1.3" paint-order="stroke fill" font-family="monospace" font-size="6.2" pointer-events="visiblePainted" class="debug-anchor-sequence" data-kind="anchor-sequence" data-label="Anchor sequence" data-tooltip="Failed new family anchor
Sector 1
Seq 0
Street 1
Source seed-gap
Family 1:0
Generation 0
Slot n/a
t 55" data-sequence="0" data-source="seed-gap" data-anchor-role="new family anchor" data-family-key="1:0" data-family-root-row-id="0" data-generation="0" data-sector-idx="1" data-street-idx="1" data-t="55">0<title>Failed new family anchor
Sector 1
Seq 0
Street 1
Source seed-gap
Family 1:0
Generation 0
Slot n/a
t 55</title></text>
<circle cx="7.25" cy="135.74" r="2.8" fill="none" stroke="#ffd700" stroke-width="1.2" pointer-events="visiblePainted" class="debug-anchor" data-kind="anchor" data-label="Accepted starting seed" data-tooltip="Accepted starting seed
Sector 2
Seq 0
Street 3
Source seed-centroid
Family 2:0
Generation 0
Slot n/a
t 40.93" data-accepted="true" data-source="seed-centroid" data-anchor-role="starting seed" data-anchor-shape="circle" data-family-key="2:0" data-family-root-row-id="0" data-generation="0" data-sector-idx="2" data-street-idx="3" data-sequence="0" data-t="40.93"><title>Accepted starting seed
Sector 2
Seq 0
Street 3
Source seed-centroid
Family 2:0
Generation 0
Slot n/a
t 40.93</title></circle>
<text x="11.75" y="131.24" fill="#ffffff" stroke="#000000" stroke-width="1.3" paint-order="stroke fill" font-family="monospace" font-size="6.2" pointer-events="visiblePainted" class="debug-anchor-sequence" data-kind="anchor-sequence" data-label="Anchor sequence" data-tooltip="Accepted starting seed
Sector 2
Seq 0
Street 3
Source seed-centroid
Family 2:0
Generation 0
Slot n/a
t 40.93" data-sequence="0" data-source="seed-centroid" data-anchor-role="starting seed" data-family-key="2:0" data-family-root-row-id="0" data-generation="0" data-sector-idx="2" data-street-idx="3" data-t="40.93">0<title>Accepted starting seed
Sector 2
Seq 0
Street 3
Source seed-centroid
Family 2:0
Generation 0
Slot n/a
t 40.93</title></text>
<rect x="10.49" y="135.03" width="5.6" height="5.6" fill="none" stroke="#ffd700" stroke-width="1.2" pointer-events="visiblePainted" class="debug-anchor" data-kind="anchor" data-label="Accepted follow-on anchor" data-tooltip="Accepted follow-on anchor
Sector 2
Seq 1
Street 3
Source parallel-slot
Family 2:0
Generation 1
Slot 1
t 72.93" data-accepted="true" data-source="parallel-slot" data-anchor-role="follow-on anchor" data-anchor-shape="square" data-family-key="2:0" data-family-root-row-id="0" data-parent-row-id="0" data-generation="1" data-slot-index="1" data-sector-idx="2" data-street-idx="3" data-sequence="1" data-t="72.93"><title>Accepted follow-on anchor
Sector 2
Seq 1
Street 3
Source parallel-slot
Family 2:0
Generation 1
Slot 1
t 72.93</title></rect>
<text x="17.79" y="133.33" fill="#ffffff" stroke="#000000" stroke-width="1.3" paint-order="stroke fill" font-family="monospace" font-size="6.2" pointer-events="visiblePainted" class="debug-anchor-sequence" data-kind="anchor-sequence" data-label="Anchor sequence" data-tooltip="Accepted follow-on anchor
Sector 2
Seq 1
Street 3
Source parallel-slot
Family 2:0
Generation 1
Slot 1
t 72.93" data-sequence="1" data-source="parallel-slot" data-anchor-role="follow-on anchor" data-family-key="2:0" data-family-root-row-id="0" data-parent-row-id="0" data-generation="1" data-slot-index="1" data-sector-idx="2" data-street-idx="3" data-t="72.93">1<title>Accepted follow-on anchor
Sector 2
Seq 1
Street 3
Source parallel-slot
Family 2:0
Generation 1
Slot 1
t 72.93</title></text>
<polygon points="7.05,113.82 9.85,116.62 7.05,119.42 4.25,116.62" fill="none" stroke="#ffd700" stroke-width="1.2" pointer-events="visiblePainted" class="debug-anchor" data-kind="anchor" data-label="Accepted new family anchor" data-tooltip="Accepted new family anchor
Sector 2
Seq 2
Street 2
Source seed-gap
Family 2:2
Generation 0
Slot n/a
t 38.75" data-accepted="true" data-source="seed-gap" data-anchor-role="new family anchor" data-anchor-shape="diamond" data-family-key="2:2" data-family-root-row-id="2" data-generation="0" data-sector-idx="2" data-street-idx="2" data-sequence="2" data-t="38.75"><title>Accepted new family anchor
Sector 2
Seq 2
Street 2
Source seed-gap
Family 2:2
Generation 0
Slot n/a
t 38.75</title></polygon>
<text x="11.55" y="112.12" fill="#ffffff" stroke="#000000" stroke-width="1.3" paint-order="stroke fill" font-family="monospace" font-size="6.2" pointer-events="visiblePainted" class="debug-anchor-sequence" data-kind="anchor-sequence" data-label="Anchor sequence" data-tooltip="Accepted new family anchor
Sector 2
Seq 2
Street 2
Source seed-gap
Family 2:2
Generation 0
Slot n/a
t 38.75" data-sequence="2" data-source="seed-gap" data-anchor-role="new family anchor" data-family-key="2:2" data-family-root-row-id="2" data-generation="0" data-sector-idx="2" data-street-idx="2" data-t="38.75">2<title>Accepted new family anchor
Sector 2
Seq 2
Street 2
Source seed-gap
Family 2:2
Generation 0
Slot n/a
t 38.75</title></text>
<circle cx="17.13" cy="89.05" r="2.8" fill="none" stroke="#ff7800" stroke-width="1.2" pointer-events="visiblePainted" class="debug-anchor" data-kind="anchor" data-label="Failed starting seed" data-tooltip="Failed starting seed
Sector 3
Seq 0
Street 0
Source seed-centroid
Family 3:0
Generation 0
Slot n/a
t 17.5" data-accepted="false" data-source="seed-centroid" data-anchor-role="starting seed" data-anchor-shape="circle" data-family-key="3:0" data-family-root-row-id="0" data-generation="0" data-sector-idx="3" data-street-idx="0" data-sequence="0" data-t="17.5"><title>Failed starting seed
Sector 3
Seq 0
Street 0
Source seed-centroid
Family 3:0
Generation 0
Slot n/a
t 17.5</title></circle>
<text x="21.63" y="84.55" fill="#ffffff" stroke="#000000" stroke-width="1.3" paint-order="stroke fill" font-family="monospace" font-size="6.2" pointer-events="visiblePainted" class="debug-anchor-sequence" data-kind="anchor-sequence" data-label="Anchor sequence" data-tooltip="Failed starting seed
Sector 3
Seq 0
Street 0
Source seed-centroid
Family 3:0
Generation 0
Slot n/a
t 17.5" data-sequence="0" data-source="seed-centroid" data-anchor-role="starting seed" data-family-key="3:0" data-family-root-row-id="0" data-generation="0" data-sector-idx="3" data-street-idx="0" data-t="17.5">0<title>Failed starting seed
Sector 3
Seq 0
Street 0
Source seed-centroid
Family 3:0
Generation 0
Slot n/a
t 17.5</title></text>
<circle cx="12.48" cy="118.5" r="1.8" fill="#50c8ff" stroke="#ffffff" stroke-width="0.8" pointer-events="visiblePainted" class="debug-junction" data-kind="junction" data-label="Confirmed junction" data-tooltip="Confirmed junction
Sector 2
Street 2
Row 0
Family 2:0" data-row-id="0" data-family-key="2:0" data-family-root-row-id="0" data-sector-idx="2" data-street-idx="2"><title>Confirmed junction
Sector 2
Street 2
Row 0
Family 2:0</title></circle>
<circle cx="7.25" cy="135.74" r="1.8" fill="#50c8ff" stroke="#ffffff" stroke-width="0.8" pointer-events="visiblePainted" class="debug-junction" data-kind="junction" data-label="Confirmed junction" data-tooltip="Confirmed junction
Sector 2
Street 3
Row 0
Family 2:0" data-row-id="0" data-family-key="2:0" data-family-root-row-id="0" data-sector-idx="2" data-street-idx="3"><title>Confirmed junction
Sector 2
Street 3
Row 0
Family 2:0</title></circle>
<circle cx="2.13" cy="153.01" r="1.8" fill="#50c8ff" stroke="#ffffff" stroke-width="0.8" pointer-events="visiblePainted" class="debug-junction" data-kind="junction" data-label="Confirmed junction" data-tooltip="Confirmed junction
Sector 2
Street 4
Row 0
Family 2:0" data-row-id="0" data-family-key="2:0" data-family-root-row-id="0" data-sector-idx="2" data-street-idx="4"><title>Confirmed junction
Sector 2
Street 4
Row 0
Family 2:0</title></circle>
<circle cx="13.21" cy="137.8" r="1.8" fill="#50c8ff" stroke="#ffffff" stroke-width="0.8" pointer-events="visiblePainted" class="debug-junction" data-kind="junction" data-label="Confirmed junction" data-tooltip="Confirmed junction
Sector 2
Street 3
Row 1
Family 2:0" data-row-id="1" data-family-key="2:0" data-family-root-row-id="0" data-sector-idx="2" data-street-idx="3"><title>Confirmed junction
Sector 2
Street 3
Row 1
Family 2:0</title></circle>
<circle cx="8.75" cy="155.3" r="1.8" fill="#50c8ff" stroke="#ffffff" stroke-width="0.8" pointer-events="visiblePainted" class="debug-junction" data-kind="junction" data-label="Confirmed junction" data-tooltip="Confirmed junction
Sector 2
Street 4
Row 1
Family 2:0" data-row-id="1" data-family-key="2:0" data-family-root-row-id="0" data-sector-idx="2" data-street-idx="4"><title>Confirmed junction
Sector 2
Street 4
Row 1
Family 2:0</title></circle>
<circle cx="4.28" cy="172.8" r="1.8" fill="#50c8ff" stroke="#ffffff" stroke-width="0.8" pointer-events="visiblePainted" class="debug-junction" data-kind="junction" data-label="Confirmed junction" data-tooltip="Confirmed junction
Sector 2
Street 5
Row 1
Family 2:0" data-row-id="1" data-family-key="2:0" data-family-root-row-id="0" data-sector-idx="2" data-street-idx="5"><title>Confirmed junction
Sector 2
Street 5
Row 1
Family 2:0</title></circle>
<circle cx="6.81" cy="116.54" r="1.8" fill="#50c8ff" stroke="#ffffff" stroke-width="0.8" pointer-events="visiblePainted" class="debug-junction" data-kind="junction" data-label="Confirmed junction" data-tooltip="Confirmed junction
Sector 2
Street 2
Row 2
Family 2:2" data-row-id="2" data-family-key="2:2" data-family-root-row-id="2" data-sector-idx="2" data-street-idx="2"><title>Confirmed junction
Sector 2
Street 2
Row 2
Family 2:2</title></circle>
<circle cx="1.4" cy="133.71" r="1.8" fill="#50c8ff" stroke="#ffffff" stroke-width="0.8" pointer-events="visiblePainted" class="debug-junction" data-kind="junction" data-label="Confirmed junction" data-tooltip="Confirmed junction
Sector 2
Street 3
Row 2
Family 2:2" data-row-id="2" data-family-key="2:2" data-family-root-row-id="2" data-sector-idx="2" data-street-idx="3"><title>Confirmed junction
Sector 2
Street 3
Row 2
Family 2:2</title></circle>
</g>
</svg>