<?xml version="1.0" encoding="UTF-8"?>
<svg xmlns="http://www.w3.org/2000/svg" width="163" height="188" viewBox="0 0 163 188">
<rect width="163" height="188" fill="#262626" />
<g fill="none" stroke-linecap="round" stroke-linejoin="round">
<polyline points="34,20 38,21 36,23 42,26 48,27 50,29 61,32 68,36 82,40 84,42 95,45 97,47 108,50 110,52 121,55 136,62 143,63 143,112 103,112 93,123 89,123 79,134 65,141 59,147 59,150 41,168 30,91 30,83 26,62 26,60 28,60 29,58 26,58 23,32 22,30 20,30 20,27 24,28 28,24 32,23 34,20 34,20" fill="none" stroke="#ffff00" stroke-width="1.8" opacity="1" pointer-events="stroke" class="debug-zone-boundary" data-kind="zone-boundary" data-label="Zone boundary" data-tooltip="Zone boundary"><title>zone boundary</title></polyline>
<polyline points="47.35,159.19 47.1,158.76 46.84,158.33 46.59,157.9 46.34,157.47 46.08,157.04 45.83,156.61 45.57,156.18 45.32,155.75 45.07,155.32 44.81,154.89 44.56,154.46 44.3,154.03 44.05,153.59 43.8,153.16 43.54,152.73 43.29,152.3 43.03,151.87 42.78,151.44 42.52,151.01 42.27,150.58 42.02,150.15 41.76,149.72 41.51,149.29 41.25,148.86 41,148.43 40.75,148 40.49,147.57 40.24,147.14 39.98,146.7 39.73,146.27 39.48,145.84 39.22,145.41 38.97,144.98 38.71,144.55 38.46,144.12 38.21,143.69 37.95,143.26 37.7,142.83 37.44,142.4" fill="none" stroke="#ff00ff" stroke-width="1.1" opacity="0.95" pointer-events="stroke" class="debug-cross-street" data-kind="cross-street" data-label="Cross street" data-tooltip="Cross street
Sector 0
Road 157" data-sector-idx="0" data-road-id="157" data-street-key="-360|4316.76|19710.96|4267.21|19626.99" data-ct-off="-360"><title>Cross street
Sector 0
Road 157</title></polyline>
<polyline points="60.06,145.31 59.81,144.88 59.55,144.45 59.3,144.02 59.04,143.59 58.79,143.16 58.54,142.72 58.28,142.29 58.03,141.86 57.77,141.43 57.52,141 57.26,140.57 57.01,140.14 56.76,139.71 56.5,139.28 56.25,138.85 55.99,138.42 55.74,137.99 55.49,137.56 55.23,137.13 54.98,136.7 54.72,136.27 54.47,135.83 54.22,135.4 53.96,134.97 53.71,134.54 53.45,134.11 53.2,133.68" fill="none" stroke="#ff00ff" stroke-width="1.1" opacity="0.95" pointer-events="stroke" class="debug-cross-street" data-kind="cross-street" data-label="Cross street" data-tooltip="Cross street
Sector 0
Road 158" data-sector-idx="0" data-road-id="158" data-street-key="-270|4380.3|19641.54|4346|19583.41" data-ct-off="-270"><title>Cross street
Sector 0
Road 158</title></polyline>
<polyline points="74.55,134.44 74.29,134.01 74.04,133.58 73.78,133.15 73.53,132.72 73.28,132.29 73.02,131.86 72.77,131.42 72.51,130.99 72.26,130.56 72.01,130.13 71.75,129.7 71.5,129.27 71.24,128.84 70.99,128.41 70.73,127.98 70.48,127.55 70.23,127.12 69.97,126.69 69.72,126.26 69.46,125.83 69.21,125.4 68.96,124.97 68.7,124.53 68.45,124.1 68.19,123.67 67.94,123.24 67.69,122.81 67.43,122.38 67.18,121.95 66.92,121.52 66.67,121.09 66.42,120.66 66.16,120.23 65.91,119.8 65.65,119.37 65.4,118.94 65.14,118.51 64.89,118.08 64.64,117.64 64.38,117.21 64.13,116.78 63.87,116.35 63.62,115.92 63.37,115.49 63.11,115.06 62.86,114.63 62.6,114.2 62.35,113.77 62.1,113.34 61.84,112.91" fill="none" stroke="#ff00ff" stroke-width="1.1" opacity="0.95" pointer-events="stroke" class="debug-cross-street" data-kind="cross-street" data-label="Cross street" data-tooltip="Cross street
Sector 0
Road 159" data-sector-idx="0" data-road-id="159" data-street-key="-180|4452.73|19587.19|4389.21|19479.54" data-ct-off="-180"><title>Cross street
Sector 0
Road 159</title></polyline>
<polyline points="88.27,122.28 88.02,121.85 87.76,121.42 87.51,120.99 87.25,120.55 87,120.12 86.75,119.69 86.49,119.26 86.24,118.83 85.98,118.4 85.73,117.97 85.47,117.54 85.22,117.11 84.97,116.68 84.71,116.25 84.46,115.82 84.2,115.39 83.95,114.96 83.7,114.53 83.44,114.1 83.19,113.66 82.93,113.23 82.68,112.8 82.43,112.37 82.17,111.94 81.92,111.51 81.66,111.08 81.41,110.65 81.16,110.22 80.9,109.79 80.65,109.36 80.39,108.93 80.14,108.5 79.88,108.07 79.63,107.64 79.38,107.21 79.12,106.77 78.87,106.34 78.61,105.91 78.36,105.48 78.11,105.05 77.85,104.62 77.6,104.19 77.34,103.76 77.09,103.33 76.84,102.9 76.58,102.47 76.33,102.04 76.07,101.61 75.82,101.18 75.57,100.75 75.31,100.32 75.06,99.88 74.8,99.45 74.55,99.02 74.29,98.59 74.04,98.16 73.79,97.73 73.53,97.3 73.28,96.87 73.02,96.44 72.77,96.01 72.52,95.58 72.26,95.15 72.01,94.72 71.75,94.29 71.5,93.86 71.25,93.43 70.99,92.99 70.74,92.56 70.48,92.13 70.23,91.7" fill="none" stroke="#ff00ff" stroke-width="1.1" opacity="0.95" pointer-events="stroke" class="debug-cross-street" data-kind="cross-street" data-label="Cross street" data-tooltip="Cross street
Sector 0
Road 160" data-sector-idx="0" data-road-id="160" data-street-key="-90|4521.35|19526.38|4431.15|19373.51" data-ct-off="-90"><title>Cross street
Sector 0
Road 160</title></polyline>
<polyline points="35.42,32.71 35.16,32.28 34.91,31.85 34.66,31.42 34.4,30.98 34.15,30.55 33.89,30.12 33.64,29.69 33.39,29.26 33.13,28.83 32.88,28.4 32.62,27.97 32.37,27.54 32.11,27.11 31.86,26.68 31.61,26.25 31.35,25.82 31.1,25.39 30.84,24.96 30.59,24.53 30.34,24.09 30.08,23.66 29.83,23.23 29.57,22.8 29.32,22.37" fill="none" stroke="#ff00ff" stroke-width="1.1" opacity="0.95" pointer-events="stroke" class="debug-cross-street" data-kind="cross-street" data-label="Cross street" data-tooltip="Cross street
Sector 0
Road 161" data-sector-idx="0" data-road-id="161" data-street-key="-90|4257.09|19078.54|4226.6|19026.86" data-ct-off="-90"><title>Cross street
Sector 0
Road 161</title></polyline>
<polyline points="102.76,111.41 102.5,110.98 102.25,110.55 101.99,110.12 101.74,109.68 101.49,109.25 101.23,108.82 100.98,108.39 100.72,107.96 100.47,107.53 100.21,107.1 99.96,106.67 99.71,106.24 99.45,105.81 99.2,105.38 98.94,104.95 98.69,104.52 98.44,104.09 98.18,103.66 97.93,103.23 97.67,102.79 97.42,102.36 97.17,101.93 96.91,101.5 96.66,101.07 96.4,100.64 96.15,100.21 95.9,99.78 95.64,99.35 95.39,98.92 95.13,98.49 94.88,98.06 94.62,97.63 94.37,97.2 94.12,96.77 93.86,96.34 93.61,95.9 93.35,95.47 93.1,95.04 92.85,94.61 92.59,94.18 92.34,93.75 92.08,93.32 91.83,92.89 91.58,92.46 91.32,92.03 91.07,91.6 90.81,91.17 90.56,90.74 90.31,90.31 90.05,89.88 89.8,89.45 89.54,89.01 89.29,88.58 89.03,88.15 88.78,87.72 88.53,87.29 88.27,86.86 88.02,86.43 87.76,86 87.51,85.57 87.26,85.14 87,84.71 86.75,84.28 86.49,83.85 86.24,83.42 85.99,82.99 85.73,82.56 85.48,82.12 85.22,81.69 84.97,81.26 84.72,80.83 84.46,80.4 84.21,79.97 83.95,79.54 83.7,79.11 83.44,78.68 83.19,78.25 82.94,77.82 82.68,77.39" fill="none" stroke="#ff00ff" stroke-width="1.1" opacity="0.95" pointer-events="stroke" class="debug-cross-street" data-kind="cross-street" data-label="Cross street" data-tooltip="Cross street
Sector 0
Road 162" data-sector-idx="0" data-road-id="162" data-street-key="0|4593.78|19472.04|4493.41|19301.94" data-ct-off="0"><title>Cross street
Sector 0
Road 162</title></polyline>
<polyline points="123.59,111.3 123.34,110.87 123.09,110.44 122.83,110.01 122.58,109.58 122.32,109.15 122.07,108.72 121.82,108.29 121.56,107.86 121.31,107.43 121.05,107 120.8,106.57 120.55,106.14 120.29,105.7 120.04,105.27 119.78,104.84 119.53,104.41 119.27,103.98 119.02,103.55 118.77,103.12 118.51,102.69 118.26,102.26 118,101.83 117.75,101.4 117.5,100.97 117.24,100.54 116.99,100.11 116.73,99.68 116.48,99.25 116.23,98.81 115.97,98.38 115.72,97.95 115.46,97.52 115.21,97.09 114.96,96.66 114.7,96.23 114.45,95.8 114.19,95.37 113.94,94.94 113.68,94.51 113.43,94.08 113.18,93.65 112.92,93.22 112.67,92.79 112.41,92.36 112.16,91.92 111.91,91.49 111.65,91.06 111.4,90.63 111.14,90.2 110.89,89.77 110.64,89.34 110.38,88.91 110.13,88.48 109.87,88.05 109.62,87.62 109.36,87.19 109.11,86.76 108.86,86.33 108.6,85.9 108.35,85.47 108.09,85.03 107.84,84.6 107.59,84.17 107.33,83.74 107.08,83.31 106.82,82.88 106.57,82.45 106.32,82.02 106.06,81.59 105.81,81.16 105.55,80.73 105.3,80.3 105.05,79.87 104.79,79.44 104.54,79.01 104.28,78.58 104.03,78.14 103.77,77.71 103.52,77.28 103.27,76.85 103.01,76.42 102.76,75.99 102.5,75.56 102.25,75.13 102,74.7 101.74,74.27 101.49,73.84 101.23,73.41 100.98,72.98 100.73,72.55 100.47,72.12 100.22,71.69 99.96,71.25 99.71,70.82 99.46,70.39 99.2,69.96 98.95,69.53 98.69,69.1 98.44,68.67 98.18,68.24 97.93,67.81 97.68,67.38 97.42,66.95 97.17,66.52 96.91,66.09 96.66,65.66 96.41,65.23 96.15,64.8 95.9,64.36 95.64,63.93" fill="none" stroke="#ff00ff" stroke-width="1.1" opacity="0.95" pointer-events="stroke" class="debug-cross-street" data-kind="cross-street" data-label="Cross street" data-tooltip="Cross street
Sector 0
Road 163" data-sector-idx="0" data-road-id="163" data-street-key="90|4697.97|19471.51|4558.22|19234.67" data-ct-off="90"><title>Cross street
Sector 0
Road 163</title></polyline>
<polyline points="142.4,107.75 142.15,107.32 141.89,106.89 141.64,106.46 141.38,106.03 141.13,105.6 140.88,105.17 140.62,104.74 140.37,104.31 140.11,103.88 139.86,103.45 139.6,103.02 139.35,102.59 139.1,102.16 138.84,101.72 138.59,101.29 138.33,100.86 138.08,100.43 137.83,100 137.57,99.57 137.32,99.14 137.06,98.71 136.81,98.28 136.56,97.85 136.3,97.42 136.05,96.99 135.79,96.56 135.54,96.13 135.29,95.7 135.03,95.27 134.78,94.83 134.52,94.4 134.27,93.97 134.01,93.54 133.76,93.11 133.51,92.68 133.25,92.25 133,91.82 132.74,91.39 132.49,90.96 132.24,90.53 131.98,90.1 131.73,89.67 131.47,89.24 131.22,88.81 130.97,88.38 130.71,87.94 130.46,87.51 130.2,87.08 129.95,86.65 129.7,86.22 129.44,85.79 129.19,85.36 128.93,84.93 128.68,84.5 128.42,84.07 128.17,83.64 127.92,83.21 127.66,82.78 127.41,82.35 127.15,81.92 126.9,81.49 126.65,81.05 126.39,80.62 126.14,80.19 125.88,79.76 125.63,79.33 125.38,78.9 125.12,78.47 124.87,78.04 124.61,77.61 124.36,77.18 124.11,76.75 123.85,76.32 123.6,75.89 123.34,75.46 123.09,75.03 122.83,74.6 122.58,74.16 122.33,73.73 122.07,73.3 121.82,72.87 121.56,72.44 121.31,72.01 121.06,71.58 120.8,71.15 120.55,70.72 120.29,70.29 120.04,69.86 119.79,69.43 119.53,69 119.28,68.57 119.02,68.14 118.77,67.71 118.52,67.27 118.26,66.84 118.01,66.41 117.75,65.98 117.5,65.55 117.24,65.12 116.99,64.69 116.74,64.26 116.48,63.83 116.23,63.4 115.97,62.97 115.72,62.54 115.47,62.11 115.21,61.68 114.96,61.25 114.7,60.82 114.45,60.38 114.2,59.95 113.94,59.52 113.69,59.09 113.43,58.66 113.18,58.23 112.92,57.8 112.67,57.37 112.42,56.94 112.16,56.51 111.91,56.08 111.65,55.65 111.4,55.22 111.15,54.79 110.89,54.36 110.64,53.93 110.38,53.5 110.13,53.06 109.88,52.63 109.62,52.2 109.37,51.77 109.11,51.34 108.86,50.91 108.61,50.48" fill="none" stroke="#ff00ff" stroke-width="1.1" opacity="0.95" pointer-events="stroke" class="debug-cross-street" data-kind="cross-street" data-label="Cross street" data-tooltip="Cross street
Sector 0
Road 164" data-sector-idx="0" data-road-id="164" data-street-key="180|4792|19453.77|4623.03|19167.4" data-ct-off="180"><title>Cross street
Sector 0
Road 164</title></polyline>
<polyline points="142.4,72.34 142.15,71.91 141.89,71.48 141.64,71.05 141.39,70.62 141.13,70.18 140.88,69.75 140.62,69.32 140.37,68.89 140.12,68.46 139.86,68.03 139.61,67.6 139.35,67.17 139.1,66.74 138.85,66.31 138.59,65.88 138.34,65.45 138.08,65.02 137.83,64.59 137.57,64.16 137.32,63.73 137.07,63.3 136.81,62.86 136.56,62.43 136.3,62 136.05,61.57 135.8,61.14" fill="none" stroke="#ff00ff" stroke-width="1.1" opacity="0.95" pointer-events="stroke" class="debug-cross-street" data-kind="cross-street" data-label="Cross street" data-tooltip="Cross street
Sector 0
Road 165" data-sector-idx="0" data-road-id="165" data-street-key="270|4792.01|19276.69|4758.98|19220.71" data-ct-off="270"><title>Cross street
Sector 0
Road 165</title></polyline>
<polyline points="43.82,135.4 43.45,135.07 43.07,134.74 42.7,134.41 42.32,134.08 41.95,133.75 41.57,133.42 41.2,133.09 40.82,132.76 40.45,132.43 40.07,132.1 39.7,131.76 39.32,131.43 38.95,131.1 38.57,130.77 38.2,130.44 37.82,130.11 37.45,129.78 37.07,129.45 36.7,129.12 36.32,128.79 35.95,128.46 35.57,128.13 35.2,127.8" fill="none" stroke="#ff00ff" stroke-width="1.1" opacity="0.95" pointer-events="stroke" class="debug-cross-street" data-kind="cross-street" data-label="Cross street" data-tooltip="Cross street
Sector 1
Road 167" data-sector-idx="1" data-road-id="167" data-street-key="-270|4299.11|19592.02|4255.99|19553.98" data-ct-off="-270"><title>Cross street
Sector 1
Road 167</title></polyline>
<polyline points="59.48,125.21 59.1,124.88 58.73,124.55 58.35,124.22 57.98,123.89 57.6,123.56 57.23,123.23 56.85,122.9 56.48,122.57 56.1,122.23 55.73,121.9 55.35,121.57 54.98,121.24 54.6,120.91 54.23,120.58 53.85,120.25 53.48,119.92 53.1,119.59 52.73,119.26 52.35,118.93 51.98,118.6 51.6,118.27 51.23,117.94 50.85,117.6 50.48,117.27 50.1,116.94 49.73,116.61 49.35,116.28 48.98,115.95 48.6,115.62 48.23,115.29 47.85,114.96 47.48,114.63 47.1,114.3 46.73,113.97 46.35,113.64 45.98,113.3 45.6,112.97 45.23,112.64 44.86,112.31 44.48,111.98 44.11,111.65 43.73,111.32 43.36,110.99 42.98,110.66 42.61,110.33 42.23,110 41.86,109.67 41.48,109.34 41.11,109 40.73,108.67 40.36,108.34 39.98,108.01 39.61,107.68 39.23,107.35 38.86,107.02 38.48,106.69 38.11,106.36 37.73,106.03 37.36,105.7 36.98,105.37 36.61,105.04 36.23,104.7 35.86,104.37 35.48,104.04 35.11,103.71 34.73,103.38 34.36,103.05 33.98,102.72 33.61,102.39 33.23,102.06 32.86,101.73 32.48,101.4 32.11,101.07 31.73,100.74 31.36,100.41" fill="none" stroke="#ff00ff" stroke-width="1.1" opacity="0.95" pointer-events="stroke" class="debug-cross-street" data-kind="cross-street" data-label="Cross street" data-tooltip="Cross street
Sector 1
Road 168" data-sector-idx="1" data-road-id="168" data-street-key="-180|4377.39|19541.06|4236.78|19417.03" data-ct-off="-180"><title>Cross street
Sector 1
Road 168</title></polyline>
<polyline points="62.39,103.77 62.01,103.44 61.64,103.11 61.26,102.78 60.89,102.45 60.51,102.12 60.14,101.79 59.76,101.46 59.39,101.13 59.01,100.8 58.64,100.47 58.26,100.14 57.89,99.81 57.51,99.47 57.14,99.14 56.76,98.81 56.39,98.48 56.01,98.15 55.64,97.82 55.26,97.49 54.89,97.16 54.51,96.83 54.14,96.5 53.76,96.17 53.39,95.84 53.01,95.51 52.64,95.18 52.26,94.84 51.89,94.51 51.51,94.18 51.14,93.85 50.76,93.52 50.39,93.19 50.01,92.86 49.64,92.53 49.26,92.2 48.89,91.87 48.51,91.54 48.14,91.21 47.76,90.88 47.39,90.54 47.01,90.21 46.64,89.88 46.26,89.55 45.89,89.22 45.51,88.89 45.14,88.56 44.76,88.23 44.39,87.9 44.01,87.57 43.64,87.24 43.26,86.91 42.89,86.58 42.51,86.24 42.14,85.91 41.76,85.58 41.39,85.25 41.01,84.92 40.64,84.59 40.26,84.26 39.89,83.93 39.51,83.6 39.14,83.27 38.76,82.94 38.39,82.61 38.01,82.28 37.64,81.94 37.26,81.61 36.89,81.28 36.51,80.95 36.14,80.62 35.76,80.29 35.39,79.96 35.01,79.63 34.64,79.3 34.26,78.97 33.89,78.64 33.51,78.31 33.14,77.98 32.76,77.65 32.39,77.31 32.01,76.98 31.64,76.65 31.26,76.32 30.89,75.99 30.51,75.66 30.14,75.33 29.76,75 29.39,74.67 29.01,74.34 28.64,74.01 28.26,73.68 27.89,73.35 27.51,73.01 27.14,72.68" fill="none" stroke="#ff00ff" stroke-width="1.1" opacity="0.95" pointer-events="stroke" class="debug-cross-street" data-kind="cross-street" data-label="Cross street" data-tooltip="Cross street
Sector 1
Road 169" data-sector-idx="1" data-road-id="169" data-street-key="-90|4391.93|19433.87|4215.7|19278.42" data-ct-off="-90"><title>Cross street
Sector 1
Road 169</title></polyline>
<polyline points="72.42,88.62 72.04,88.29 71.67,87.96 71.29,87.63 70.92,87.3 70.54,86.97 70.17,86.64 69.79,86.31 69.42,85.98 69.04,85.65 68.67,85.31 68.29,84.98 67.92,84.65 67.54,84.32 67.17,83.99 66.79,83.66 66.42,83.33 66.04,83 65.67,82.67 65.29,82.34 64.92,82.01 64.54,81.68 64.17,81.35 63.79,81.01 63.42,80.68 63.04,80.35 62.67,80.02 62.29,79.69 61.92,79.36 61.54,79.03 61.17,78.7 60.79,78.37 60.42,78.04 60.04,77.71 59.67,77.38 59.3,77.05 58.92,76.71 58.55,76.38 58.17,76.05 57.8,75.72 57.42,75.39 57.05,75.06 56.67,74.73 56.3,74.4 55.92,74.07 55.55,73.74 55.17,73.41 54.8,73.08 54.42,72.75 54.05,72.42 53.67,72.08 53.3,71.75 52.92,71.42 52.55,71.09 52.17,70.76 51.8,70.43 51.42,70.1 51.05,69.77 50.67,69.44 50.3,69.11 49.92,68.78 49.55,68.45 49.17,68.12 48.8,67.78 48.42,67.45 48.05,67.12 47.67,66.79 47.3,66.46 46.92,66.13 46.55,65.8 46.17,65.47 45.8,65.14" fill="none" stroke="#ff00ff" stroke-width="1.1" opacity="0.95" pointer-events="stroke" class="debug-cross-street" data-kind="cross-street" data-label="Cross street" data-tooltip="Cross street
Sector 1
Road 170" data-sector-idx="1" data-road-id="170" data-street-key="0|4442.09|19358.11|4308.98|19240.69" data-ct-off="0"><title>Cross street
Sector 1
Road 170</title></polyline>
<polyline points="38.3,58.52 37.92,58.19 37.55,57.86 37.17,57.53 36.8,57.2 36.42,56.87 36.05,56.54 35.67,56.21 35.3,55.88 34.92,55.55 34.55,55.22 34.17,54.89 33.8,54.55 33.42,54.22 33.05,53.89 32.67,53.56 32.3,53.23 31.92,52.9 31.55,52.57 31.17,52.24 30.8,51.91 30.42,51.58 30.05,51.25 29.67,50.92 29.3,50.59 28.92,50.25 28.55,49.92 28.17,49.59 27.8,49.26 27.42,48.93 27.05,48.6 26.67,48.27 26.3,47.94 25.92,47.61 25.55,47.28 25.17,46.95 24.8,46.62" fill="none" stroke="#ff00ff" stroke-width="1.1" opacity="0.95" pointer-events="stroke" class="debug-cross-street" data-kind="cross-street" data-label="Cross street" data-tooltip="Cross street
Sector 1
Road 171" data-sector-idx="1" data-road-id="171" data-street-key="0|4271.48|19207.62|4203.99|19148.08" data-ct-off="0"><title>Cross street
Sector 1
Road 171</title></polyline>
<polyline points="58.45,52.3 58.08,51.97 57.7,51.64 57.33,51.31 56.95,50.98 56.58,50.65 56.2,50.32 55.83,49.99 55.45,49.66 55.08,49.32 54.7,48.99 54.33,48.66 53.95,48.33 53.58,48 53.2,47.67 52.83,47.34 52.45,47.01 52.08,46.68 51.7,46.35 51.33,46.02 50.95,45.69 50.58,45.36 50.2,45.02 49.83,44.69 49.45,44.36 49.08,44.03 48.7,43.7 48.33,43.37 47.95,43.04 47.58,42.71 47.2,42.38 46.83,42.05 46.45,41.72 46.08,41.39 45.7,41.06 45.33,40.72 44.95,40.39 44.58,40.06 44.2,39.73 43.83,39.4 43.45,39.07 43.08,38.74 42.7,38.41 42.33,38.08 41.95,37.75 41.58,37.42 41.2,37.09 40.83,36.76 40.45,36.42 40.08,36.09 39.7,35.76 39.33,35.43 38.95,35.1 38.58,34.77 38.2,34.44 37.83,34.11 37.45,33.78 37.08,33.45 36.7,33.12 36.33,32.79" fill="none" stroke="#ff00ff" stroke-width="1.1" opacity="0.95" pointer-events="stroke" class="debug-cross-street" data-kind="cross-street" data-label="Cross street" data-tooltip="Cross street
Sector 1
Road 172" data-sector-idx="1" data-road-id="172" data-street-key="90|4372.27|19176.51|4261.65|19078.93" data-ct-off="90"><title>Cross street
Sector 1
Road 172</title></polyline>
<polyline points="84.7,75.45 84.33,75.12 83.95,74.79 83.58,74.46 83.2,74.13 82.83,73.8 82.45,73.47 82.08,73.14 81.7,72.81 81.33,72.48 80.95,72.15 80.58,71.82 80.2,71.48 79.83,71.15 79.45,70.82 79.08,70.49 78.7,70.16 78.33,69.83 77.95,69.5 77.58,69.17 77.2,68.84 76.83,68.51 76.45,68.18 76.08,67.85 75.7,67.52 75.33,67.19 74.95,66.85 74.58,66.52 74.2,66.19 73.83,65.86 73.45,65.53 73.08,65.2 72.7,64.87 72.33,64.54 71.95,64.21 71.58,63.88 71.2,63.55 70.83,63.22 70.45,62.89 70.08,62.55 69.7,62.22 69.33,61.89 68.95,61.56 68.58,61.23 68.2,60.9 67.83,60.57 67.45,60.24 67.08,59.91 66.7,59.58 66.33,59.25 65.95,58.92 65.58,58.59 65.2,58.25 64.83,57.92 64.45,57.59 64.08,57.26 63.7,56.93 63.33,56.6" fill="none" stroke="#ff00ff" stroke-width="1.1" opacity="0.95" pointer-events="stroke" class="debug-cross-street" data-kind="cross-street" data-label="Cross street" data-tooltip="Cross street
Sector 1
Road 173" data-sector-idx="1" data-road-id="173" data-street-key="90|4503.51|19292.27|4396.64|19198" data-ct-off="90"><title>Cross street
Sector 1
Road 173</title></polyline>
<polyline points="96.23,61.62 95.86,61.29 95.48,60.96 95.11,60.63 94.73,60.3 94.36,59.97 93.98,59.64 93.61,59.31 93.23,58.98 92.86,58.65 92.48,58.32 92.11,57.99 91.73,57.66 91.36,57.32 90.98,56.99 90.61,56.66 90.23,56.33 89.86,56 89.48,55.67 89.11,55.34 88.73,55.01 88.36,54.68 87.98,54.35 87.61,54.02 87.23,53.69 86.86,53.36 86.48,53.02 86.11,52.69 85.73,52.36 85.36,52.03 84.98,51.7 84.61,51.37 84.23,51.04 83.86,50.71 83.48,50.38 83.11,50.05 82.73,49.72 82.36,49.39 81.98,49.06 81.61,48.72 81.23,48.39 80.86,48.06 80.48,47.73 80.11,47.4 79.73,47.07 79.36,46.74 78.98,46.41 78.61,46.08 78.23,45.75 77.86,45.42 77.48,45.09 77.11,44.76 76.73,44.43 76.36,44.09 75.98,43.76 75.61,43.43 75.23,43.1 74.86,42.77 74.48,42.44 74.11,42.11 73.74,41.78 73.36,41.45 72.99,41.12 72.61,40.79 72.24,40.46 71.86,40.13 71.49,39.79 71.11,39.46 70.74,39.13 70.36,38.8 69.99,38.47 69.61,38.14 69.24,37.81 68.86,37.48 68.49,37.15 68.11,36.82 67.74,36.49 67.36,36.16 66.99,35.83 66.61,35.49 66.24,35.16 65.86,34.83 65.49,34.5 65.11,34.17 64.74,33.84 64.36,33.51 63.99,33.18" fill="none" stroke="#ff00ff" stroke-width="1.1" opacity="0.95" pointer-events="stroke" class="debug-cross-street" data-kind="cross-street" data-label="Cross street" data-tooltip="Cross street
Sector 1
Road 174" data-sector-idx="1" data-road-id="174" data-street-key="180|4561.17|19223.12|4399.93|19080.9" data-ct-off="180"><title>Cross street
Sector 1
Road 174</title></polyline>
<polyline points="40.26,167.44 40.01,167.01 39.75,166.58" fill="none" stroke="rgb(150, 110, 255)" stroke-width="1" opacity="0.9" pointer-events="stroke" stroke-dasharray="3 2" class="debug-cross-street-rejected" data-kind="cross-street-rejected" data-label="Rejected cross street" data-tooltip="Rejected cross street
Sector 0
Candidate ct:-411.50:run:0
Reason too-short
ct -411.5
Length 5" data-sector-idx="0" data-candidate-key="ct:-411.50:run:0" data-ct-off="-411.5" data-reason="too-short"><title>Rejected cross street
Sector 0
Candidate ct:-411.50:run:0
Reason too-short
ct -411.5
Length 5</title></polyline>
<polyline points="36.68,141.11 36.43,140.68" fill="none" stroke="rgb(150, 110, 255)" stroke-width="1" opacity="0.9" pointer-events="stroke" stroke-dasharray="3 2" class="debug-cross-street-rejected" data-kind="cross-street-rejected" data-label="Rejected cross street" data-tooltip="Rejected cross street
Sector 0
Candidate ct:-360.00:run:1
Reason too-short
ct -360
Length 2.5" data-sector-idx="0" data-candidate-key="ct:-360.00:run:1" data-ct-off="-360" data-reason="too-short"><title>Rejected cross street
Sector 0
Candidate ct:-360.00:run:1
Reason too-short
ct -360
Length 2.5</title></polyline>
<polyline points="104.39,49.35 104.02,49.02 103.64,48.69 103.27,48.36" fill="none" stroke="rgb(150, 110, 255)" stroke-width="1" opacity="0.9" pointer-events="stroke" stroke-dasharray="3 2" class="debug-cross-street-rejected" data-kind="cross-street-rejected" data-label="Rejected cross street" data-tooltip="Rejected cross street
Sector 1
Candidate ct:253.03:run:0
Reason too-short
ct 253.03
Length 7.5" data-sector-idx="1" data-candidate-key="ct:253.03:run:0" data-ct-off="253.03" data-reason="too-short"><title>Rejected cross street
Sector 1
Candidate ct:253.03:run:0
Reason too-short
ct 253.03
Length 7.5</title></polyline>
<polyline points="26.59,144.27 18.36,130.32" fill="none" stroke="#a8a8a8" stroke-width="0.8" opacity="0.8" pointer-events="stroke" stroke-dasharray="2 2" class="debug-cross-street-missing" data-kind="cross-street-missing" data-label="Missing cross street scanline" data-tooltip="Missing cross street scanline
Sector 0
ct -411.5
Runs 1
Candidates 1
Rejected 1
Pruned 0" data-sector-idx="0" data-ct-off="-411.5"><title>Missing cross street scanline
Sector 0
ct -411.5
Runs 1
Candidates 1
Rejected 1
Pruned 0</title></polyline>
<circle cx="22.47" cy="137.3" r="1.4" fill="#ffffff" stroke="#000000" stroke-width="0.8" pointer-events="visiblePainted" class="debug-cross-street-missing-point" data-kind="cross-street-missing-point" data-label="Missing cross street seed" data-tooltip="Missing cross street scanline
Sector 0
ct -411.5
Runs 1
Candidates 1
Rejected 1
Pruned 0" data-sector-idx="0" data-ct-off="-411.5"><title>Missing cross street scanline
Sector 0
ct -411.5
Runs 1
Candidates 1
Rejected 1
Pruned 0</title></circle>
<polyline points="95.47,41.48 83.32,30.76" fill="none" stroke="#a8a8a8" stroke-width="0.8" opacity="0.8" pointer-events="stroke" stroke-dasharray="2 2" class="debug-cross-street-missing" data-kind="cross-street-missing" data-label="Missing cross street scanline" data-tooltip="Missing cross street scanline
Sector 1
ct 253.03
Runs 1
Candidates 1
Rejected 1
Pruned 0" data-sector-idx="1" data-ct-off="253.03"><title>Missing cross street scanline
Sector 1
ct 253.03
Runs 1
Candidates 1
Rejected 1
Pruned 0</title></polyline>
<circle cx="89.4" cy="36.12" r="1.4" fill="#ffffff" stroke="#000000" stroke-width="0.8" pointer-events="visiblePainted" class="debug-cross-street-missing-point" data-kind="cross-street-missing-point" data-label="Missing cross street seed" data-tooltip="Missing cross street scanline
Sector 1
ct 253.03
Runs 1
Candidates 1
Rejected 1
Pruned 0" data-sector-idx="1" data-ct-off="253.03"><title>Missing cross street scanline
Sector 1
ct 253.03
Runs 1
Candidates 1
Rejected 1
Pruned 0</title></circle>
<polyline points="63.37,115.49 64.62,114.55 65.01,114.23 65.4,113.93 65.8,113.62 66.2,113.32 66.61,113.03 67.02,112.75 67.43,112.47 67.85,112.19 68.27,111.92 68.69,111.65 69.1,111.37 69.52,111.1 69.94,110.82 70.35,110.54 70.77,110.26 71.18,109.98 71.59,109.69 72,109.41 72.41,109.12 72.82,108.83 73.23,108.54 73.63,108.25 74.04,107.96 74.44,107.67 74.85,107.38 75.26,107.08 75.66,106.79 76.07,106.5 76.47,106.21 76.88,105.92 77.29,105.63 77.7,105.34 78.11,105.05 79.38,104.25 79.8,103.97 80.22,103.7 80.64,103.43 81.06,103.16 81.48,102.89 81.9,102.62 82.32,102.35 82.74,102.08 83.16,101.8 83.58,101.53 84,101.26 84.42,100.99 84.84,100.72 85.27,100.46 85.69,100.19 86.11,99.92 86.54,99.66 86.96,99.4 87.39,99.14 87.82,98.88 88.24,98.62 88.67,98.36 89.1,98.1 89.52,97.84 89.95,97.58 90.38,97.31 90.8,97.05 91.23,96.79 91.65,96.53 92.08,96.26 92.5,96 92.93,95.74 93.35,95.47 93.78,95.21 94.2,94.95 94.63,94.68 95.05,94.42 95.48,94.16 95.9,93.89 96.33,93.63 96.75,93.37 97.18,93.1 97.6,92.84 98.03,92.58 98.45,92.31 98.88,92.05 99.3,91.78 99.72,91.52 100.15,91.25 100.57,90.98 101,90.72 101.42,90.46 101.85,90.2 102.28,89.94 102.71,89.68 103.14,89.43 103.57,89.18 104.01,88.94 104.45,88.7 104.89,88.46 105.33,88.23 105.78,88 106.22,87.78 106.67,87.56 107.12,87.34 107.58,87.13 108.03,86.92 108.48,86.71 108.86,86.33 109.29,86.07 109.72,85.82 110.15,85.57 110.58,85.32 111.01,85.06 111.45,84.81 111.88,84.56 112.31,84.3 112.74,84.05 113.17,83.8 113.6,83.54 114.03,83.29 114.46,83.03 114.89,82.78 115.32,82.52 115.75,82.26 116.18,82 116.6,81.75 117.03,81.49 117.46,81.23 117.89,80.97 118.31,80.71 118.74,80.45 119.17,80.19 119.59,79.93 120.02,79.66 120.44,79.4 120.87,79.14 121.29,78.87 121.72,78.61 122.14,78.35 122.57,78.08 122.99,77.82 123.42,77.55 124.11,76.75 124.51,76.46 124.92,76.17 125.33,75.89 125.74,75.6 126.15,75.32 126.56,75.03 126.97,74.74 127.38,74.46 127.79,74.17 128.2,73.88 128.61,73.6 129.02,73.31 129.43,73.02 129.83,72.73 130.24,72.44 130.65,72.15 131.06,71.86 131.46,71.57 131.87,71.28 132.28,70.99 132.69,70.7 133.1,70.41 133.5,70.12 133.91,69.84 134.32,69.55 134.74,69.27 135.15,68.98 135.56,68.7 135.97,68.42 136.38,68.13 136.8,67.85 137.21,67.57 137.62,67.29 138.04,67.01 138.45,66.73 138.85,66.31" fill="none" stroke="rgb(230, 76, 76)" stroke-width="1.6" opacity="0.75" pointer-events="stroke" class="debug-ribbon" data-kind="ribbon-row" data-label="Ribbon row" data-tooltip="Ribbon row
Sector 0
Row 0
Family 0:0
Source seed-string
Generation 0
Slot n/a" data-row-id="0" data-family-key="0:0" data-family-root-row-id="0" data-source="seed-string" data-sector-idx="0" data-generation="0"><title>Ribbon row
Sector 0
Row 0
Family 0:0
Source seed-string
Generation 0
Slot n/a</title></polyline>
<polyline points="32.86,101.73 32.76,100.29 33.09,99.93 33.43,99.56 33.77,99.19 34.11,98.82 34.45,98.45 34.79,98.09 35.12,97.72 35.46,97.35 35.8,96.98 36.14,96.62 36.48,96.25 36.82,95.88 37.16,95.52 37.5,95.15 37.85,94.79 38.19,94.42 38.53,94.06 38.87,93.7 39.22,93.33 39.56,92.97 39.91,92.61 40.25,92.24 40.59,91.88 40.94,91.52 41.28,91.16 41.63,90.79 41.97,90.43 42.32,90.07 42.66,89.71 43.01,89.35 43.35,88.98 43.7,88.62 44.04,88.26 44.39,87.9 45.13,87.21 45.45,86.82 45.77,86.44 46.09,86.05 46.41,85.67 46.73,85.28 47.05,84.9 47.37,84.52 47.69,84.13 48.01,83.75 48.33,83.36 48.65,82.98 48.97,82.59 49.28,82.21 49.6,81.82 49.92,81.43 50.24,81.05 50.56,80.66 50.87,80.28 51.19,79.89 51.51,79.5 51.82,79.12 52.14,78.73 52.46,78.34 52.77,77.95 53.09,77.56 53.4,77.18 53.72,76.79 54.03,76.4 54.35,76.01 54.66,75.62 54.98,75.23 55.29,74.85 55.61,74.46 55.92,74.07 56.24,73.68 56.55,73.29 56.86,72.9 57.18,72.51 57.49,72.12 57.8,71.73 58.12,71.34 58.43,70.95 58.74,70.56 59.05,70.17 59.37,69.78 59.68,69.39 59.99,69 60.3,68.61 60.62,68.22 60.93,67.83 61.25,67.44 61.56,67.06 61.88,66.67 62.2,66.29 62.52,65.9 62.84,65.52 63.17,65.14 63.49,64.76 63.82,64.38 64.15,64.01 64.48,63.63 64.81,63.26 65.15,62.89 65.48,62.52 65.82,62.15 66.16,61.78 67.45,60.24 67.81,59.89 68.17,59.54 68.53,59.2 68.89,58.85 69.25,58.51 69.62,58.16 69.98,57.82 70.34,57.47 70.7,57.13 71.07,56.78 71.43,56.44 71.79,56.1 72.16,55.75 72.52,55.41 72.88,55.07 73.25,54.73 73.61,54.38 73.98,54.04 74.34,53.7 74.71,53.35 75.07,53.01 75.43,52.67 75.79,52.32 76.16,51.98 76.52,51.63 76.88,51.29 77.24,50.94 77.6,50.59 77.96,50.24 78.31,49.89 78.67,49.54 79.03,49.19 79.39,48.84 81.23,48.39" fill="none" stroke="rgb(230, 76, 76)" stroke-width="1.6" opacity="0.75" pointer-events="stroke" class="debug-ribbon" data-kind="ribbon-row" data-label="Ribbon row" data-tooltip="Ribbon row
Sector 1
Row 0
Family 1:0
Source seed-string
Generation 0
Slot n/a" data-row-id="0" data-family-key="1:0" data-family-root-row-id="0" data-source="seed-string" data-sector-idx="1" data-generation="0"><title>Ribbon row
Sector 1
Row 0
Family 1:0
Source seed-string
Generation 0
Slot n/a</title></polyline>
<polyline points="63.37,115.49 63.01,115.85 62.66,116.2 62.32,116.56 61.97,116.92 61.62,117.28 61.28,117.64 60.93,118 60.64,118.41 60.35,118.82 60.07,119.23 59.73,119.6 59.44,120.01 59.15,120.42 58.87,120.83 58.58,121.24 58.3,121.65 58.01,122.06 57.72,122.47 57.44,122.88 57.15,123.29 56.87,123.7 56.58,124.11 56.3,124.52 56.01,124.93 55.73,125.34 55.44,125.75 55.16,126.16 54.87,126.57 54.59,126.98 54.3,127.39 54.01,127.81 53.73,128.22 53.44,128.63 53.16,129.04 52.87,129.45 52.59,129.86 52.3,130.27 52.02,130.68 51.73,131.09 51.45,131.5 51.16,131.91 50.88,132.32 50.59,132.73 50.3,133.14 50.02,133.55 49.73,133.96 49.45,134.37 49.09,134.73 48.73,135.07 48.37,135.42 48.01,135.77 47.65,136.11 47.29,136.46 46.94,136.81 46.58,137.16 46.22,137.51 45.86,137.86 45.51,138.21 45.15,138.56 44.79,138.91 44.43,139.26 44.08,139.61 43.72,139.96 43.36,140.31 43,140.66 42.64,141 42.29,141.35 41.93,141.7 41.57,142.05 41.2,142.39 40.84,142.73 40.47,143.07 40.1,143.41 39.74,143.75 38.68,144.49" fill="none" stroke="rgb(255, 255, 90)" stroke-width="1.2" opacity="0.95" pointer-events="stroke" class="debug-failure-path" data-kind="failure-path" data-label="Failed attempt" data-tooltip="Reason out-of-zone
Source indexed-guide
Sector 0
Row 0
Family 0:0
From street 2
To street 0
Anchor street 5
Anchor source seed-centroid
Slot n/a" data-failure-idx="0" data-reason="out-of-zone" data-source="indexed-guide" data-sector-idx="0" data-row-id-attempt="0" data-family-key="0:0" data-family-root-row-id="0" data-from-street-idx="2" data-to-street-idx="0" data-anchor-source="seed-centroid" data-anchor-street-idx="5" data-anchor-t="92.5" data-anchor-generation="0"><title>Reason out-of-zone
Source indexed-guide
Sector 0
Row 0
Family 0:0
From street 2
To street 0
Anchor street 5
Anchor source seed-centroid
Slot n/a</title></polyline>
<circle cx="63.37" cy="115.49" r="1.8" fill="#dcdcdc" stroke="#000000" stroke-width="1" pointer-events="visiblePainted" class="debug-failure-start" data-kind="failure-start" data-label="Failure start" data-tooltip="Failure start
Reason out-of-zone
Source indexed-guide
Sector 0
Row 0
Family 0:0
From street 2
To street 0
Anchor street 5
Anchor source seed-centroid
Slot n/a" data-failure-idx="0" data-reason="out-of-zone" data-source="indexed-guide" data-sector-idx="0" data-row-id-attempt="0" data-family-key="0:0" data-family-root-row-id="0" data-from-street-idx="2" data-to-street-idx="0" data-anchor-source="seed-centroid" data-anchor-street-idx="5" data-anchor-t="92.5" data-anchor-generation="0"><title>Failure start
Reason out-of-zone
Source indexed-guide
Sector 0
Row 0
Family 0:0
From street 2
To street 0
Anchor street 5
Anchor source seed-centroid
Slot n/a</title></circle>
<circle cx="38.68" cy="144.49" r="1.8" fill="#78ffff" stroke="#000000" stroke-width="1" pointer-events="visiblePainted" class="debug-failure-projected" data-kind="failure-projected" data-label="Projected landing" data-tooltip="Projected landing
Reason out-of-zone
Source indexed-guide
Sector 0
Row 0
Family 0:0
From street 2
To street 0
Anchor street 5
Anchor source seed-centroid
Slot n/a" data-failure-idx="0" data-reason="out-of-zone" data-source="indexed-guide" data-sector-idx="0" data-row-id-attempt="0" data-family-key="0:0" data-family-root-row-id="0" data-from-street-idx="2" data-to-street-idx="0" data-anchor-source="seed-centroid" data-anchor-street-idx="5" data-anchor-t="92.5" data-anchor-generation="0"><title>Projected landing
Reason out-of-zone
Source indexed-guide
Sector 0
Row 0
Family 0:0
From street 2
To street 0
Anchor street 5
Anchor source seed-centroid
Slot n/a</title></circle>
<circle cx="38.68" cy="144.49" r="2.1" fill="rgb(255, 255, 90)" stroke="#000000" stroke-width="1" pointer-events="visiblePainted" class="debug-failure-stop" data-kind="failure-stop" data-label="Failure stop" data-tooltip="Failure stop
Reason out-of-zone
Source indexed-guide
Sector 0
Row 0
Family 0:0
From street 2
To street 0
Anchor street 5
Anchor source seed-centroid
Slot n/a" data-failure-idx="0" data-reason="out-of-zone" data-source="indexed-guide" data-sector-idx="0" data-row-id-attempt="0" data-family-key="0:0" data-family-root-row-id="0" data-from-street-idx="2" data-to-street-idx="0" data-anchor-source="seed-centroid" data-anchor-street-idx="5" data-anchor-t="92.5" data-anchor-generation="0"><title>Failure stop
Reason out-of-zone
Source indexed-guide
Sector 0
Row 0
Family 0:0
From street 2
To street 0
Anchor street 5
Anchor source seed-centroid
Slot n/a</title></circle>
<polyline points="138.85,66.31 139.27,66.04 139.69,65.77 140.11,65.51 140.54,65.24 140.96,64.98 141.39,64.71 141.81,64.45 142.24,64.19 142.66,63.92 143.08,63.66 143.39,63.26 143.68,62.86 143.97,62.45 144.27,62.05 144.56,61.64 144.85,61.23 145.14,60.83 145.44,60.42 145.73,60.02 146.02,59.61 146.31,59.21 146.61,58.8 146.9,58.39 147.19,57.99 147.48,57.58 147.78,57.18 148.07,56.77 148.36,56.37 148.65,55.96 148.94,55.56 149.24,55.15 149.53,54.74 149.82,54.34 150.11,53.93 150.41,53.53 150.7,53.12 150.99,52.72 151.28,52.31 151.58,51.9 151.87,51.5 152.16,51.09 152.45,50.69 152.75,50.28 153.04,49.88 153.33,49.47 153.62,49.07 153.91,48.66 154.21,48.25 154.5,47.85 154.79,47.44 155.08,47.04 155.38,46.63 155.67,46.23 155.96,45.82 156.25,45.41 156.55,45.01 156.84,44.6 157.13,44.2 157.42,43.79 157.71,43.39 158.01,42.98 158.3,42.58 158.59,42.17 158.88,41.76 159.18,41.36 159.47,40.95 159.76,40.55 160.05,40.14 160.35,39.74 160.64,39.33 160.93,38.92 161.22,38.52 161.52,38.11 161.81,37.71 162.1,37.3 162.39,36.9 162.68,36.49 162.98,36.09 163.27,35.68 163.56,35.27 163.85,34.87 164.15,34.46 164.44,34.06 164.73,33.65 165.02,33.25 165.32,32.84 165.61,32.43 165.9,32.03" fill="none" stroke="rgb(255, 210, 120)" stroke-width="1.2" opacity="0.95" pointer-events="stroke" class="debug-failure-path" data-kind="failure-path" data-label="Failed attempt" data-tooltip="Reason ray-miss
Source indexed-guide
Sector 0
Row 0
Family 0:0
From street 8
To street n/a
Anchor street 5
Anchor source seed-centroid
Slot n/a" data-failure-idx="1" data-reason="ray-miss" data-source="indexed-guide" data-sector-idx="0" data-row-id-attempt="0" data-family-key="0:0" data-family-root-row-id="0" data-from-street-idx="8" data-anchor-source="seed-centroid" data-anchor-street-idx="5" data-anchor-t="92.5" data-anchor-generation="0"><title>Reason ray-miss
Source indexed-guide
Sector 0
Row 0
Family 0:0
From street 8
To street n/a
Anchor street 5
Anchor source seed-centroid
Slot n/a</title></polyline>
<circle cx="138.85" cy="66.31" r="1.8" fill="#dcdcdc" stroke="#000000" stroke-width="1" pointer-events="visiblePainted" class="debug-failure-start" data-kind="failure-start" data-label="Failure start" data-tooltip="Failure start
Reason ray-miss
Source indexed-guide
Sector 0
Row 0
Family 0:0
From street 8
To street n/a
Anchor street 5
Anchor source seed-centroid
Slot n/a" data-failure-idx="1" data-reason="ray-miss" data-source="indexed-guide" data-sector-idx="0" data-row-id-attempt="0" data-family-key="0:0" data-family-root-row-id="0" data-from-street-idx="8" data-anchor-source="seed-centroid" data-anchor-street-idx="5" data-anchor-t="92.5" data-anchor-generation="0"><title>Failure start
Reason ray-miss
Source indexed-guide
Sector 0
Row 0
Family 0:0
From street 8
To street n/a
Anchor street 5
Anchor source seed-centroid
Slot n/a</title></circle>
<circle cx="165.9" cy="32.03" r="2.1" fill="rgb(255, 210, 120)" stroke="#000000" stroke-width="1" pointer-events="visiblePainted" class="debug-failure-stop" data-kind="failure-stop" data-label="Failure stop" data-tooltip="Failure stop
Reason ray-miss
Source indexed-guide
Sector 0
Row 0
Family 0:0
From street 8
To street n/a
Anchor street 5
Anchor source seed-centroid
Slot n/a" data-failure-idx="1" data-reason="ray-miss" data-source="indexed-guide" data-sector-idx="0" data-row-id-attempt="0" data-family-key="0:0" data-family-root-row-id="0" data-from-street-idx="8" data-anchor-source="seed-centroid" data-anchor-street-idx="5" data-anchor-t="92.5" data-anchor-generation="0"><title>Failure stop
Reason ray-miss
Source indexed-guide
Sector 0
Row 0
Family 0:0
From street 8
To street n/a
Anchor street 5
Anchor source seed-centroid
Slot n/a</title></circle>
<polyline points="32.86,101.73 32.77,102.22 32.67,102.71 32.58,103.2 32.48,103.69 32.38,104.18 32.29,104.67 32.19,105.16 32.09,105.65 31.99,106.14 31.87,106.63 31.75,107.11 31.63,107.6 31.51,108.08 31.38,108.57 31.26,109.05 31.14,109.54 31.01,110.02 30.89,110.51 30.77,110.99 30.64,111.48 30.52,111.96 30.4,112.45 30.28,112.93 30.15,113.42 30.03,113.9 29.91,114.38 29.78,114.87 29.66,115.35 29.54,115.84 29.42,116.32 29.29,116.81 29.17,117.29 29.05,117.78 28.92,118.26 28.8,118.75 28.68,119.23 28.56,119.72 28.43,120.2 28.31,120.69 28.19,121.17 28.06,121.65 27.94,122.14 27.82,122.62 27.7,123.11 27.57,123.59 27.45,124.08 27.33,124.56 27.2,125.05 27.08,125.53 26.96,126.02 26.84,126.5 26.71,126.99 26.59,127.47 26.47,127.96 26.34,128.44 26.22,128.92 26.1,129.41 25.98,129.89 25.85,130.38 25.73,130.86 25.61,131.35 25.48,131.83 25.36,132.32 25.24,132.8 25.12,133.29 24.99,133.77 24.87,134.26 24.75,134.74 24.62,135.23 24.5,135.71 24.38,136.19 24.26,136.68 24.13,137.16 24.01,137.65 23.89,138.13 23.76,138.62 23.64,139.1 23.52,139.59 23.39,140.07 23.27,140.56 23.15,141.04 23.03,141.53 22.9,142.01 22.78,142.5 22.66,142.98 22.53,143.46 22.41,143.95 22.29,144.43" fill="none" stroke="rgb(255, 210, 120)" stroke-width="1.2" opacity="0.95" pointer-events="stroke" class="debug-failure-path" data-kind="failure-path" data-label="Failed attempt" data-tooltip="Reason ray-miss
Source indexed-guide
Sector 1
Row 0
Family 1:0
From street 1
To street n/a
Anchor street 3
Anchor source seed-centroid
Slot n/a" data-failure-idx="2" data-reason="ray-miss" data-source="indexed-guide" data-sector-idx="1" data-row-id-attempt="0" data-family-key="1:0" data-family-root-row-id="0" data-from-street-idx="1" data-anchor-source="seed-centroid" data-anchor-street-idx="3" data-anchor-t="110" data-anchor-generation="0"><title>Reason ray-miss
Source indexed-guide
Sector 1
Row 0
Family 1:0
From street 1
To street n/a
Anchor street 3
Anchor source seed-centroid
Slot n/a</title></polyline>
<circle cx="32.86" cy="101.73" r="1.8" fill="#dcdcdc" stroke="#000000" stroke-width="1" pointer-events="visiblePainted" class="debug-failure-start" data-kind="failure-start" data-label="Failure start" data-tooltip="Failure start
Reason ray-miss
Source indexed-guide
Sector 1
Row 0
Family 1:0
From street 1
To street n/a
Anchor street 3
Anchor source seed-centroid
Slot n/a" data-failure-idx="2" data-reason="ray-miss" data-source="indexed-guide" data-sector-idx="1" data-row-id-attempt="0" data-family-key="1:0" data-family-root-row-id="0" data-from-street-idx="1" data-anchor-source="seed-centroid" data-anchor-street-idx="3" data-anchor-t="110" data-anchor-generation="0"><title>Failure start
Reason ray-miss
Source indexed-guide
Sector 1
Row 0
Family 1:0
From street 1
To street n/a
Anchor street 3
Anchor source seed-centroid
Slot n/a</title></circle>
<circle cx="22.29" cy="144.43" r="2.1" fill="rgb(255, 210, 120)" stroke="#000000" stroke-width="1" pointer-events="visiblePainted" class="debug-failure-stop" data-kind="failure-stop" data-label="Failure stop" data-tooltip="Failure stop
Reason ray-miss
Source indexed-guide
Sector 1
Row 0
Family 1:0
From street 1
To street n/a
Anchor street 3
Anchor source seed-centroid
Slot n/a" data-failure-idx="2" data-reason="ray-miss" data-source="indexed-guide" data-sector-idx="1" data-row-id-attempt="0" data-family-key="1:0" data-family-root-row-id="0" data-from-street-idx="1" data-anchor-source="seed-centroid" data-anchor-street-idx="3" data-anchor-t="110" data-anchor-generation="0"><title>Failure stop
Reason ray-miss
Source indexed-guide
Sector 1
Row 0
Family 1:0
From street 1
To street n/a
Anchor street 3
Anchor source seed-centroid
Slot n/a</title></circle>
<polyline points="81.23,48.39 81.7,48.2 82.15,48 82.61,47.8 83.07,47.61 83.53,47.41 83.99,47.21 84.45,47.01 84.91,46.81 85.36,46.61 85.82,46.4 86.28,46.2 86.73,46 87.19,45.79 87.65,45.59 88.1,45.38 88.56,45.18 89.01,44.97 89.47,44.76 89.92,44.56 90.38,44.35 90.83,44.14 91.29,43.93 91.74,43.72 92.2,43.51 92.65,43.31 93.11,43.1 93.56,42.89 94.02,42.69 94.47,42.48 94.93,42.28 95.38,42.07 95.84,41.86 96.3,41.66 96.75,41.45 97.21,41.25 97.66,41.04 98.12,40.83 98.57,40.63 99.03,40.42 99.49,40.22 99.94,40.01 100.4,39.8 100.85,39.6 101.31,39.39 101.76,39.19 102.22,38.98 102.67,38.78 103.13,38.57 103.59,38.36 104.04,38.16 104.5,37.95 104.95,37.75 105.41,37.54 105.86,37.33 106.32,37.13 106.78,36.92 107.23,36.72 107.69,36.51 108.14,36.3 108.6,36.1 109.05,35.89 109.51,35.69 109.97,35.48 110.42,35.27 110.88,35.07 111.33,34.86 111.79,34.66 112.24,34.45 112.7,34.24 113.15,34.04 113.61,33.83 114.07,33.63 114.52,33.42 114.98,33.22 115.43,33.01 115.89,32.8 116.34,32.6 116.8,32.39 117.26,32.19 117.71,31.98 118.17,31.77 118.62,31.57 119.08,31.36 119.53,31.16 119.99,30.95 120.44,30.74 120.9,30.54 121.36,30.33" fill="none" stroke="rgb(255, 210, 120)" stroke-width="1.2" opacity="0.95" pointer-events="stroke" class="debug-failure-path" data-kind="failure-path" data-label="Failed attempt" data-tooltip="Reason ray-miss
Source indexed-guide
Sector 1
Row 0
Family 1:0
From street 7
To street n/a
Anchor street 3
Anchor source seed-centroid
Slot n/a" data-failure-idx="3" data-reason="ray-miss" data-source="indexed-guide" data-sector-idx="1" data-row-id-attempt="0" data-family-key="1:0" data-family-root-row-id="0" data-from-street-idx="7" data-anchor-source="seed-centroid" data-anchor-street-idx="3" data-anchor-t="110" data-anchor-generation="0"><title>Reason ray-miss
Source indexed-guide
Sector 1
Row 0
Family 1:0
From street 7
To street n/a
Anchor street 3
Anchor source seed-centroid
Slot n/a</title></polyline>
<circle cx="81.23" cy="48.39" r="1.8" fill="#dcdcdc" stroke="#000000" stroke-width="1" pointer-events="visiblePainted" class="debug-failure-start" data-kind="failure-start" data-label="Failure start" data-tooltip="Failure start
Reason ray-miss
Source indexed-guide
Sector 1
Row 0
Family 1:0
From street 7
To street n/a
Anchor street 3
Anchor source seed-centroid
Slot n/a" data-failure-idx="3" data-reason="ray-miss" data-source="indexed-guide" data-sector-idx="1" data-row-id-attempt="0" data-family-key="1:0" data-family-root-row-id="0" data-from-street-idx="7" data-anchor-source="seed-centroid" data-anchor-street-idx="3" data-anchor-t="110" data-anchor-generation="0"><title>Failure start
Reason ray-miss
Source indexed-guide
Sector 1
Row 0
Family 1:0
From street 7
To street n/a
Anchor street 3
Anchor source seed-centroid
Slot n/a</title></circle>
<circle cx="121.36" cy="30.33" r="2.1" fill="rgb(255, 210, 120)" stroke="#000000" stroke-width="1" pointer-events="visiblePainted" class="debug-failure-stop" data-kind="failure-stop" data-label="Failure stop" data-tooltip="Failure stop
Reason ray-miss
Source indexed-guide
Sector 1
Row 0
Family 1:0
From street 7
To street n/a
Anchor street 3
Anchor source seed-centroid
Slot n/a" data-failure-idx="3" data-reason="ray-miss" data-source="indexed-guide" data-sector-idx="1" data-row-id-attempt="0" data-family-key="1:0" data-family-root-row-id="0" data-from-street-idx="7" data-anchor-source="seed-centroid" data-anchor-street-idx="3" data-anchor-t="110" data-anchor-generation="0"><title>Failure stop
Reason ray-miss
Source indexed-guide
Sector 1
Row 0
Family 1:0
From street 7
To street n/a
Anchor street 3
Anchor source seed-centroid
Slot n/a</title></circle>
<circle cx="93.35" cy="95.47" r="2.8" fill="none" stroke="#ffd700" stroke-width="1.2" pointer-events="visiblePainted" class="debug-anchor" data-kind="anchor" data-label="Accepted starting seed" data-tooltip="Accepted starting seed
Sector 0
Seq 0
Street 5
Source seed-centroid
Family 0:0
Generation 0
Slot n/a
t 92.5" data-accepted="true" data-source="seed-centroid" data-anchor-role="starting seed" data-anchor-shape="circle" data-family-key="0:0" data-family-root-row-id="0" data-generation="0" data-sector-idx="0" data-street-idx="5" data-sequence="0" data-t="92.5"><title>Accepted starting seed
Sector 0
Seq 0
Street 5
Source seed-centroid
Family 0:0
Generation 0
Slot n/a
t 92.5</title></circle>
<text x="97.85" y="90.97" fill="#ffffff" stroke="#000000" stroke-width="1.3" paint-order="stroke fill" font-family="monospace" font-size="6.2" pointer-events="visiblePainted" class="debug-anchor-sequence" data-kind="anchor-sequence" data-label="Anchor sequence" data-tooltip="Accepted starting seed
Sector 0
Seq 0
Street 5
Source seed-centroid
Family 0:0
Generation 0
Slot n/a
t 92.5" data-sequence="0" data-source="seed-centroid" data-anchor-role="starting seed" data-family-key="0:0" data-family-root-row-id="0" data-generation="0" data-sector-idx="0" data-street-idx="5" data-t="92.5">0<title>Accepted starting seed
Sector 0
Seq 0
Street 5
Source seed-centroid
Family 0:0
Generation 0
Slot n/a
t 92.5</title></text>
<circle cx="55.92" cy="74.07" r="2.8" fill="none" stroke="#ffd700" stroke-width="1.2" pointer-events="visiblePainted" class="debug-anchor" data-kind="anchor" data-label="Accepted starting seed" data-tooltip="Accepted starting seed
Sector 1
Seq 0
Street 3
Source seed-centroid
Family 1:0
Generation 0
Slot n/a
t 110" data-accepted="true" data-source="seed-centroid" data-anchor-role="starting seed" data-anchor-shape="circle" data-family-key="1:0" data-family-root-row-id="0" data-generation="0" data-sector-idx="1" data-street-idx="3" data-sequence="0" data-t="110"><title>Accepted starting seed
Sector 1
Seq 0
Street 3
Source seed-centroid
Family 1:0
Generation 0
Slot n/a
t 110</title></circle>
<text x="60.42" y="69.57" fill="#ffffff" stroke="#000000" stroke-width="1.3" paint-order="stroke fill" font-family="monospace" font-size="6.2" pointer-events="visiblePainted" class="debug-anchor-sequence" data-kind="anchor-sequence" data-label="Anchor sequence" data-tooltip="Accepted starting seed
Sector 1
Seq 0
Street 3
Source seed-centroid
Family 1:0
Generation 0
Slot n/a
t 110" data-sequence="0" data-source="seed-centroid" data-anchor-role="starting seed" data-family-key="1:0" data-family-root-row-id="0" data-generation="0" data-sector-idx="1" data-street-idx="3" data-t="110">0<title>Accepted starting seed
Sector 1
Seq 0
Street 3
Source seed-centroid
Family 1:0
Generation 0
Slot n/a
t 110</title></text>
<circle cx="63.37" cy="115.49" r="1.8" fill="#50c8ff" stroke="#ffffff" stroke-width="0.8" pointer-events="visiblePainted" class="debug-junction" data-kind="junction" data-label="Confirmed junction" data-tooltip="Confirmed junction
Sector 0
Street 2
Row 0
Family 0:0" data-row-id="0" data-family-key="0:0" data-family-root-row-id="0" data-sector-idx="0" data-street-idx="2"><title>Confirmed junction
Sector 0
Street 2
Row 0
Family 0:0</title></circle>
<circle cx="78.11" cy="105.05" r="1.8" fill="#50c8ff" stroke="#ffffff" stroke-width="0.8" pointer-events="visiblePainted" class="debug-junction" data-kind="junction" data-label="Confirmed junction" data-tooltip="Confirmed junction
Sector 0
Street 3
Row 0
Family 0:0" data-row-id="0" data-family-key="0:0" data-family-root-row-id="0" data-sector-idx="0" data-street-idx="3"><title>Confirmed junction
Sector 0
Street 3
Row 0
Family 0:0</title></circle>
<circle cx="93.35" cy="95.47" r="1.8" fill="#50c8ff" stroke="#ffffff" stroke-width="0.8" pointer-events="visiblePainted" class="debug-junction" data-kind="junction" data-label="Confirmed junction" data-tooltip="Confirmed junction
Sector 0
Street 5
Row 0
Family 0:0" data-row-id="0" data-family-key="0:0" data-family-root-row-id="0" data-sector-idx="0" data-street-idx="5"><title>Confirmed junction
Sector 0
Street 5
Row 0
Family 0:0</title></circle>
<circle cx="108.86" cy="86.33" r="1.8" fill="#50c8ff" stroke="#ffffff" stroke-width="0.8" pointer-events="visiblePainted" class="debug-junction" data-kind="junction" data-label="Confirmed junction" data-tooltip="Confirmed junction
Sector 0
Street 6
Row 0
Family 0:0" data-row-id="0" data-family-key="0:0" data-family-root-row-id="0" data-sector-idx="0" data-street-idx="6"><title>Confirmed junction
Sector 0
Street 6
Row 0
Family 0:0</title></circle>
<circle cx="124.11" cy="76.75" r="1.8" fill="#50c8ff" stroke="#ffffff" stroke-width="0.8" pointer-events="visiblePainted" class="debug-junction" data-kind="junction" data-label="Confirmed junction" data-tooltip="Confirmed junction
Sector 0
Street 7
Row 0
Family 0:0" data-row-id="0" data-family-key="0:0" data-family-root-row-id="0" data-sector-idx="0" data-street-idx="7"><title>Confirmed junction
Sector 0
Street 7
Row 0
Family 0:0</title></circle>
<circle cx="138.85" cy="66.31" r="1.8" fill="#50c8ff" stroke="#ffffff" stroke-width="0.8" pointer-events="visiblePainted" class="debug-junction" data-kind="junction" data-label="Confirmed junction" data-tooltip="Confirmed junction
Sector 0
Street 8
Row 0
Family 0:0" data-row-id="0" data-family-key="0:0" data-family-root-row-id="0" data-sector-idx="0" data-street-idx="8"><title>Confirmed junction
Sector 0
Street 8
Row 0
Family 0:0</title></circle>
<circle cx="31.36" cy="100.41" r="1.8" fill="#50c8ff" stroke="#ffffff" stroke-width="0.8" pointer-events="visiblePainted" class="debug-junction" data-kind="junction" data-label="Confirmed junction" data-tooltip="Confirmed junction
Sector 1
Street 1
Row 0
Family 1:0" data-row-id="0" data-family-key="1:0" data-family-root-row-id="0" data-sector-idx="1" data-street-idx="1"><title>Confirmed junction
Sector 1
Street 1
Row 0
Family 1:0</title></circle>
<circle cx="44.39" cy="87.9" r="1.8" fill="#50c8ff" stroke="#ffffff" stroke-width="0.8" pointer-events="visiblePainted" class="debug-junction" data-kind="junction" data-label="Confirmed junction" data-tooltip="Confirmed junction
Sector 1
Street 2
Row 0
Family 1:0" data-row-id="0" data-family-key="1:0" data-family-root-row-id="0" data-sector-idx="1" data-street-idx="2"><title>Confirmed junction
Sector 1
Street 2
Row 0
Family 1:0</title></circle>
<circle cx="55.92" cy="74.07" r="1.8" fill="#50c8ff" stroke="#ffffff" stroke-width="0.8" pointer-events="visiblePainted" class="debug-junction" data-kind="junction" data-label="Confirmed junction" data-tooltip="Confirmed junction
Sector 1
Street 3
Row 0
Family 1:0" data-row-id="0" data-family-key="1:0" data-family-root-row-id="0" data-sector-idx="1" data-street-idx="3"><title>Confirmed junction
Sector 1
Street 3
Row 0
Family 1:0</title></circle>
<circle cx="67.45" cy="60.24" r="1.8" fill="#50c8ff" stroke="#ffffff" stroke-width="0.8" pointer-events="visiblePainted" class="debug-junction" data-kind="junction" data-label="Confirmed junction" data-tooltip="Confirmed junction
Sector 1
Street 6
Row 0
Family 1:0" data-row-id="0" data-family-key="1:0" data-family-root-row-id="0" data-sector-idx="1" data-street-idx="6"><title>Confirmed junction
Sector 1
Street 6
Row 0
Family 1:0</title></circle>
<circle cx="81.23" cy="48.39" r="1.8" fill="#50c8ff" stroke="#ffffff" stroke-width="0.8" pointer-events="visiblePainted" class="debug-junction" data-kind="junction" data-label="Confirmed junction" data-tooltip="Confirmed junction
Sector 1
Street 7
Row 0
Family 1:0" data-row-id="0" data-family-key="1:0" data-family-root-row-id="0" data-sector-idx="1" data-street-idx="7"><title>Confirmed junction
Sector 1
Street 7
Row 0
Family 1:0</title></circle>
</g>
</svg>